<svg width="30" height="30" viewBox="0 0 30 30" fill="none" xmlns="http://www.w3.org/2000/svg">
<path d="M13.6875 22.5L20.75 15.4375L18.9375 13.625L13.6563 18.9062L11.0313 16.2812L9.25 18.0625L13.6875 22.5ZM7.5 27.5C6.8125 27.5 6.22375 27.2554 5.73375 26.7663C5.24375 26.2771 4.99917 25.6883 5 25V5C5 4.3125 5.245 3.72417 5.735 3.235C6.225 2.74583 6.81334 2.50083 7.5 2.5H17.5L25 10V25C25 25.6875 24.755 26.2763 24.265 26.7663C23.775 27.2563 23.1867 27.5008 22.5 27.5H7.5ZM16.25 11.25H22.5L16.25 5V11.25Z" fill="#0B0A07"/>
</svg>
