<svg width="40" height="40" viewBox="0 0 40 40" fill="none" xmlns="http://www.w3.org/2000/svg">
<path d="M31.6667 36.6666C29.8333 36.6666 28.2639 36.0138 26.9583 34.7083C25.6528 33.4027 25 31.8333 25 29.9999V22.4999C25 21.3333 25.4028 20.3471 26.2083 19.5416C27.0139 18.736 28 18.3333 29.1667 18.3333C30.3333 18.3333 31.3194 18.736 32.125 19.5416C32.9305 20.3471 33.3333 21.3333 33.3333 22.4999V29.9999H30V22.4999C30 22.2777 29.9167 22.0833 29.75 21.9166C29.5833 21.7499 29.3889 21.6666 29.1667 21.6666C28.9444 21.6666 28.75 21.7499 28.5833 21.9166C28.4167 22.0833 28.3333 22.2777 28.3333 22.4999V29.9999C28.3333 30.9166 28.66 31.7016 29.3133 32.3549C29.9667 33.0083 30.7511 33.3344 31.6667 33.3333C32.5833 33.3333 33.3683 33.0071 34.0217 32.3549C34.675 31.7027 35.0011 30.9177 35 29.9999V23.3333H38.3333V29.9999C38.3333 31.8333 37.6805 33.4027 36.375 34.7083C35.0694 36.0138 33.5 36.6666 31.6667 36.6666ZM4.99999 29.9999C4.08333 29.9999 3.29833 29.6738 2.64499 29.0216C1.99166 28.3694 1.66555 27.5844 1.66666 26.6666V6.66659C1.66666 5.74992 1.99333 4.96492 2.64666 4.31159C3.29999 3.65825 4.08444 3.33214 4.99999 3.33325H31.6667C32.5833 3.33325 33.3683 3.65992 34.0217 4.31325C34.675 4.96659 35.0011 5.75103 35 6.66659V16.6666H29.1667C27.5555 16.6666 26.1805 17.236 25.0417 18.3749C23.9028 19.5138 23.3333 20.8888 23.3333 22.4999V29.9999H4.99999ZM18.3333 18.3333L31.6667 9.99992V6.66659L18.3333 14.9999L4.99999 6.66659V9.99992L18.3333 18.3333Z" fill="black"/>
</svg>
