<svg width="40" height="40" viewBox="0 0 40 40" fill="none" xmlns="http://www.w3.org/2000/svg">
<path d="M29.1562 14.6875C30.2779 13.874 31.1133 12.7264 31.5428 11.4091C31.9723 10.0918 31.9738 8.67229 31.5471 7.35405C31.1204 6.03581 30.2874 4.88644 29.1674 4.07063C28.0475 3.25481 26.6981 2.8144 25.3125 2.8125H14.6875C13.3019 2.8144 11.9525 3.25481 10.8326 4.07063C9.71261 4.88644 8.87962 6.03581 8.45293 7.35405C8.02624 8.67229 8.02773 10.0918 8.45721 11.4091C8.88668 12.7264 9.72209 13.874 10.8438 14.6875C10.0016 15.294 9.31578 16.092 8.84272 17.0156C8.36966 17.9393 8.12296 18.9622 8.12296 20C8.12296 21.0378 8.36966 22.0607 8.84272 22.9844C9.31578 23.908 10.0016 24.706 10.8438 25.3125C9.93287 25.9707 9.20629 26.8519 8.73363 27.8715C8.26098 28.8911 8.05808 30.015 8.14438 31.1355C8.23069 32.256 8.6033 33.3356 9.22652 34.2708C9.84974 35.206 10.7027 35.9654 11.7036 36.4764C12.7046 36.9874 13.82 37.2328 14.9429 37.189C16.0659 37.1453 17.1588 36.8139 18.117 36.2266C19.0752 35.6393 19.8664 34.8158 20.415 33.8349C20.9636 32.8541 21.2511 31.7488 21.25 30.625V25.1406C21.9312 25.7154 22.7223 26.1453 23.5751 26.4043C24.4278 26.6633 25.3244 26.7459 26.2102 26.647C27.0959 26.5481 27.9522 26.2698 28.7269 25.8291C29.5016 25.3884 30.1784 24.7946 30.716 24.0837C31.2536 23.3729 31.6408 22.56 31.854 21.6947C32.0672 20.8293 32.1018 19.9296 31.9559 19.0503C31.81 18.1711 31.4865 17.3309 31.0051 16.5808C30.5238 15.8307 29.8947 15.1865 29.1562 14.6875ZM29.375 9.375C29.3709 10.4512 28.9416 11.4821 28.1806 12.2431C27.4196 13.0041 26.3887 13.4334 25.3125 13.4375H21.25V5.3125H25.3125C26.3887 5.31662 27.4196 5.74595 28.1806 6.50693C28.9416 7.2679 29.3709 8.29882 29.375 9.375ZM25.3125 24.0625C24.2351 24.0625 23.2017 23.6345 22.4399 22.8726C21.678 22.1108 21.25 21.0774 21.25 20C21.25 18.9226 21.678 17.8892 22.4399 17.1274C23.2017 16.3655 24.2351 15.9375 25.3125 15.9375C26.3899 15.9375 27.4233 16.3655 28.1851 17.1274C28.947 17.8892 29.375 18.9226 29.375 20C29.375 21.0774 28.947 22.1108 28.1851 22.8726C27.4233 23.6345 26.3899 24.0625 25.3125 24.0625Z" fill="black"/>
</svg>
