<svg width="690" height="433" viewBox="0 0 690 433" fill="none" xmlns="http://www.w3.org/2000/svg">
<g filter="url(#filter0_d_740_1673)">
<rect width="789" height="429" rx="17" fill="white" shape-rendering="crispEdges"/>
<rect x="51.5" y="51.5" width="686" height="54" rx="15.5" fill="white"/>
<path d="M70.9492 87.5V86.0234L72.8594 85.6953V72.2539L70.9492 71.9258V70.4375H72.8594H77.6289C79.1367 70.4375 80.4492 70.7969 81.5664 71.5156C82.6914 72.2344 83.5664 73.2227 84.1914 74.4805C84.8164 75.7383 85.1289 77.1758 85.1289 78.793V79.1562C85.1289 80.7344 84.8281 82.1562 84.2266 83.4219C83.625 84.6797 82.7695 85.6758 81.6602 86.4102C80.5586 87.1367 79.2539 87.5 77.7461 87.5H70.9492ZM75.168 85.6953H77.6289C78.707 85.6953 79.6328 85.4023 80.4062 84.8164C81.1797 84.2227 81.7734 83.4336 82.1875 82.4492C82.6094 81.457 82.8203 80.3594 82.8203 79.1562V78.7695C82.8203 77.5273 82.6094 76.418 82.1875 75.4414C81.7734 74.457 81.1797 73.6797 80.4062 73.1094C79.6328 72.5391 78.707 72.2539 77.6289 72.2539H75.168V85.6953ZM92.5352 87.7461C91.3633 87.7461 90.3438 87.4805 89.4766 86.9492C88.6094 86.4102 87.9375 85.6641 87.4609 84.7109C86.9922 83.7578 86.7578 82.6562 86.7578 81.4062V80.8906C86.7578 79.6875 87.0039 78.6133 87.4961 77.668C87.9961 76.7148 88.6562 75.9648 89.4766 75.418C90.3047 74.8633 91.207 74.5859 92.1836 74.5859C93.3242 74.5859 94.2773 74.8203 95.043 75.2891C95.8164 75.7578 96.3984 76.418 96.7891 77.2695C97.1797 78.1133 97.375 79.1094 97.375 80.2578V81.6992H89.1484L89.1133 81.7578C89.1289 82.5703 89.2695 83.293 89.5352 83.9258C89.8086 84.5508 90.1992 85.043 90.707 85.4023C91.2148 85.7617 91.8242 85.9414 92.5352 85.9414C93.3164 85.9414 94 85.832 94.5859 85.6133C95.1797 85.3867 95.6914 85.0781 96.1211 84.6875L97.0234 86.1875C96.5703 86.625 95.9688 86.9961 95.2188 87.3008C94.4766 87.5977 93.582 87.7461 92.5352 87.7461ZM89.2188 79.8945H95.0664V79.5898C95.0664 78.9805 94.957 78.4375 94.7383 77.9609C94.5273 77.4766 94.207 77.0977 93.7773 76.8242C93.3555 76.543 92.8242 76.4023 92.1836 76.4023C91.668 76.4023 91.1992 76.5547 90.7773 76.8594C90.3555 77.1562 90.0078 77.5625 89.7344 78.0781C89.4609 78.5938 89.2812 79.1797 89.1953 79.8359L89.2188 79.8945ZM104.383 87.7461C103.531 87.7461 102.734 87.6602 101.992 87.4883C101.25 87.3164 100.461 87.0508 99.625 86.6914L99.6016 83.6797H101.348L101.781 85.4961C102.219 85.6758 102.641 85.8086 103.047 85.8945C103.461 85.9727 103.906 86.0117 104.383 86.0117C105.32 86.0117 105.992 85.832 106.398 85.4727C106.805 85.1133 107.008 84.668 107.008 84.1367C107.008 83.6367 106.801 83.2148 106.387 82.8711C105.98 82.5195 105.238 82.2227 104.16 81.9805C102.629 81.6289 101.5 81.1602 100.773 80.5742C100.055 79.9805 99.6953 79.1914 99.6953 78.207C99.6953 77.5195 99.8945 76.9062 100.293 76.3672C100.691 75.8203 101.246 75.3867 101.957 75.0664C102.668 74.7461 103.496 74.5859 104.441 74.5859C105.402 74.5859 106.223 74.6953 106.902 74.9141C107.59 75.1328 108.188 75.4258 108.695 75.793L108.812 78.6875H107.078L106.703 77C106.43 76.7969 106.105 76.6406 105.73 76.5312C105.355 76.4219 104.926 76.3672 104.441 76.3672C103.723 76.3672 103.137 76.5352 102.684 76.8711C102.238 77.207 102.016 77.6289 102.016 78.1367C102.016 78.4336 102.078 78.6914 102.203 78.9102C102.336 79.1289 102.586 79.3281 102.953 79.5078C103.32 79.6797 103.859 79.8516 104.57 80.0234C106.336 80.4375 107.566 80.9648 108.262 81.6055C108.965 82.2461 109.316 83.0352 109.316 83.9727C109.316 85.043 108.918 85.9414 108.121 86.668C107.332 87.3867 106.086 87.7461 104.383 87.7461ZM111.145 87.5V86.0234L113.055 85.6953V76.6367L111.145 76.3086V74.8203H115.363V85.6953L117.273 86.0234V87.5H111.145ZM112.938 71.6914V69.2188H115.363V71.6914H112.938ZM124.434 92.6211C123.824 92.6211 123.164 92.5352 122.453 92.3633C121.742 92.1992 121.117 91.9727 120.578 91.6836L121.176 89.8906C121.605 90.1172 122.113 90.3047 122.699 90.4531C123.285 90.6016 123.855 90.6758 124.41 90.6758C125.441 90.6758 126.195 90.3867 126.672 89.8086C127.156 89.2305 127.398 88.4062 127.398 87.3359V86.1289C126.984 86.6602 126.488 87.0625 125.91 87.3359C125.332 87.6094 124.668 87.7461 123.918 87.7461C122.887 87.7461 121.996 87.4922 121.246 86.9844C120.496 86.4688 119.918 85.7539 119.512 84.8398C119.113 83.918 118.914 82.8516 118.914 81.6406V81.3945C118.914 80.0352 119.113 78.8438 119.512 77.8203C119.918 76.7969 120.496 76.0039 121.246 75.4414C121.996 74.8711 122.895 74.5859 123.941 74.5859C124.738 74.5859 125.438 74.7422 126.039 75.0547C126.641 75.3672 127.145 75.8203 127.551 76.4141L127.762 74.8203H129.707V87.3359C129.707 88.4297 129.5 89.3711 129.086 90.1602C128.68 90.9492 128.082 91.5547 127.293 91.9766C126.512 92.4062 125.559 92.6211 124.434 92.6211ZM124.492 85.8711C125.188 85.8711 125.77 85.7148 126.238 85.4023C126.707 85.082 127.094 84.6328 127.398 84.0547V78.2188C127.102 77.6797 126.715 77.2539 126.238 76.9414C125.762 76.6211 125.188 76.4609 124.516 76.4609C123.781 76.4609 123.168 76.6719 122.676 77.0938C122.191 77.5156 121.828 78.0977 121.586 78.8398C121.344 79.5742 121.223 80.4258 121.223 81.3945V81.6406C121.223 82.9141 121.492 83.9375 122.031 84.7109C122.57 85.4844 123.391 85.8711 124.492 85.8711ZM129.355 76.707L128.453 74.8203H131.277V76.2969L129.355 76.707ZM132.438 87.5V86.0234L134.348 85.6953V76.6367L132.438 76.3086V74.8203H136.41L136.574 76.707C136.996 76.0352 137.523 75.5156 138.156 75.1484C138.797 74.7734 139.523 74.5859 140.336 74.5859C141.703 74.5859 142.762 74.9883 143.512 75.793C144.262 76.5898 144.637 77.8242 144.637 79.4961V85.6953L146.547 86.0234V87.5H140.418V86.0234L142.328 85.6953V79.543C142.328 78.4258 142.105 77.6328 141.66 77.1641C141.223 76.6953 140.551 76.4609 139.645 76.4609C138.98 76.4609 138.391 76.6211 137.875 76.9414C137.367 77.2617 136.961 77.6992 136.656 78.2539V85.6953L138.566 86.0234V87.5H132.438ZM154.047 87.5V86.0234L155.957 85.6953V71.0352L154.047 70.707V69.2188H158.266V85.6953L160.176 86.0234V87.5H154.047ZM165.93 87.7461C164.609 87.7461 163.605 87.4258 162.918 86.7852C162.23 86.1367 161.887 85.2266 161.887 84.0547C161.887 83.25 162.105 82.5508 162.543 81.957C162.988 81.3555 163.629 80.8906 164.465 80.5625C165.301 80.2266 166.301 80.0586 167.465 80.0586H169.727V78.8164C169.727 78.0508 169.492 77.457 169.023 77.0352C168.562 76.6133 167.91 76.4023 167.066 76.4023C166.535 76.4023 166.074 76.4688 165.684 76.6016C165.293 76.7266 164.938 76.9023 164.617 77.1289L164.371 78.8984H162.59V75.9922C163.16 75.5312 163.824 75.1836 164.582 74.9492C165.34 74.707 166.18 74.5859 167.102 74.5859C168.641 74.5859 169.848 74.9531 170.723 75.6875C171.598 76.4219 172.035 77.4727 172.035 78.8398V84.9453C172.035 85.1094 172.035 85.2695 172.035 85.4258C172.043 85.582 172.055 85.7383 172.07 85.8945L173.301 86.0234V87.5H169.984C169.914 87.1562 169.859 86.8477 169.82 86.5742C169.781 86.3008 169.754 86.0273 169.738 85.7539C169.293 86.3242 168.734 86.8008 168.062 87.1836C167.398 87.5586 166.688 87.7461 165.93 87.7461ZM166.27 85.8125C167.035 85.8125 167.734 85.6289 168.367 85.2617C169 84.8945 169.453 84.4531 169.727 83.9375V81.6406H167.383C166.32 81.6406 165.523 81.8945 164.992 82.4023C164.461 82.9102 164.195 83.4766 164.195 84.1016C164.195 84.6562 164.367 85.082 164.711 85.3789C165.055 85.668 165.574 85.8125 166.27 85.8125ZM175.094 87.5V86.0234L177.004 85.6953V76.6367L175.094 76.3086V74.8203H179.066L179.23 76.707C179.652 76.0352 180.18 75.5156 180.812 75.1484C181.453 74.7734 182.18 74.5859 182.992 74.5859C184.359 74.5859 185.418 74.9883 186.168 75.793C186.918 76.5898 187.293 77.8242 187.293 79.4961V85.6953L189.203 86.0234V87.5H183.074V86.0234L184.984 85.6953V79.543C184.984 78.4258 184.762 77.6328 184.316 77.1641C183.879 76.6953 183.207 76.4609 182.301 76.4609C181.637 76.4609 181.047 76.6211 180.531 76.9414C180.023 77.2617 179.617 77.6992 179.312 78.2539V85.6953L181.223 86.0234V87.5H175.094ZM195.707 87.7461C194.676 87.7461 193.789 87.4922 193.047 86.9844C192.312 86.4688 191.75 85.7539 191.359 84.8398C190.969 83.9258 190.773 82.8594 190.773 81.6406V81.3945C190.773 80.0352 190.969 78.8438 191.359 77.8203C191.75 76.7969 192.316 76.0039 193.059 75.4414C193.801 74.8711 194.691 74.5859 195.73 74.5859C196.48 74.5859 197.141 74.7266 197.711 75.0078C198.289 75.2812 198.781 75.6797 199.188 76.2031V71.0352L197.277 70.707V69.2188H199.188H201.496V85.6953L203.406 86.0234V87.5H199.492L199.305 85.9883C198.891 86.5664 198.383 87.0039 197.781 87.3008C197.188 87.5977 196.496 87.7461 195.707 87.7461ZM196.293 85.8711C196.98 85.8711 197.559 85.7148 198.027 85.4023C198.496 85.0898 198.883 84.6484 199.188 84.0781V78.1953C198.891 77.6641 198.504 77.2422 198.027 76.9297C197.551 76.6172 196.98 76.4609 196.316 76.4609C195.582 76.4609 194.977 76.6719 194.5 77.0938C194.023 77.5078 193.668 78.0859 193.434 78.8281C193.199 79.5625 193.082 80.418 193.082 81.3945V81.6406C193.082 82.9141 193.344 83.9375 193.867 84.7109C194.391 85.4844 195.199 85.8711 196.293 85.8711ZM204.918 87.5V86.0234L206.828 85.6953V76.6367L204.918 76.3086V74.8203H209.137V85.6953L211.047 86.0234V87.5H204.918ZM206.711 71.6914V69.2188H209.137V71.6914H206.711ZM212.641 87.5V86.0234L214.551 85.6953V76.6367L212.641 76.3086V74.8203H216.613L216.777 76.707C217.199 76.0352 217.727 75.5156 218.359 75.1484C219 74.7734 219.727 74.5859 220.539 74.5859C221.906 74.5859 222.965 74.9883 223.715 75.793C224.465 76.5898 224.84 77.8242 224.84 79.4961V85.6953L226.75 86.0234V87.5H220.621V86.0234L222.531 85.6953V79.543C222.531 78.4258 222.309 77.6328 221.863 77.1641C221.426 76.6953 220.754 76.4609 219.848 76.4609C219.184 76.4609 218.594 76.6211 218.078 76.9414C217.57 77.2617 217.164 77.6992 216.859 78.2539V85.6953L218.77 86.0234V87.5H212.641ZM233.84 92.6211C233.23 92.6211 232.57 92.5352 231.859 92.3633C231.148 92.1992 230.523 91.9727 229.984 91.6836L230.582 89.8906C231.012 90.1172 231.52 90.3047 232.105 90.4531C232.691 90.6016 233.262 90.6758 233.816 90.6758C234.848 90.6758 235.602 90.3867 236.078 89.8086C236.562 89.2305 236.805 88.4062 236.805 87.3359V86.1289C236.391 86.6602 235.895 87.0625 235.316 87.3359C234.738 87.6094 234.074 87.7461 233.324 87.7461C232.293 87.7461 231.402 87.4922 230.652 86.9844C229.902 86.4688 229.324 85.7539 228.918 84.8398C228.52 83.918 228.32 82.8516 228.32 81.6406V81.3945C228.32 80.0352 228.52 78.8438 228.918 77.8203C229.324 76.7969 229.902 76.0039 230.652 75.4414C231.402 74.8711 232.301 74.5859 233.348 74.5859C234.145 74.5859 234.844 74.7422 235.445 75.0547C236.047 75.3672 236.551 75.8203 236.957 76.4141L237.168 74.8203H239.113V87.3359C239.113 88.4297 238.906 89.3711 238.492 90.1602C238.086 90.9492 237.488 91.5547 236.699 91.9766C235.918 92.4062 234.965 92.6211 233.84 92.6211ZM233.898 85.8711C234.594 85.8711 235.176 85.7148 235.645 85.4023C236.113 85.082 236.5 84.6328 236.805 84.0547V78.2188C236.508 77.6797 236.121 77.2539 235.645 76.9414C235.168 76.6211 234.594 76.4609 233.922 76.4609C233.188 76.4609 232.574 76.6719 232.082 77.0938C231.598 77.5156 231.234 78.0977 230.992 78.8398C230.75 79.5742 230.629 80.4258 230.629 81.3945V81.6406C230.629 82.9141 230.898 83.9375 231.438 84.7109C231.977 85.4844 232.797 85.8711 233.898 85.8711ZM238.762 76.707L237.859 74.8203H240.684V76.2969L238.762 76.707ZM247.469 92.375V90.8867L249.262 90.5586V76.6367L247.352 76.3086V74.8203H251.242L251.453 76.3672C251.875 75.7891 252.387 75.3477 252.988 75.043C253.598 74.7383 254.301 74.5859 255.098 74.5859C256.145 74.5859 257.039 74.8711 257.781 75.4414C258.523 76.0039 259.09 76.7969 259.48 77.8203C259.871 78.8359 260.066 80.0273 260.066 81.3945V81.6406C260.066 82.8594 259.867 83.9258 259.469 84.8398C259.078 85.7539 258.516 86.4688 257.781 86.9844C257.047 87.4922 256.164 87.7461 255.133 87.7461C254.352 87.7461 253.664 87.6172 253.07 87.3594C252.484 87.0938 251.984 86.7031 251.57 86.1875V90.5586L253.586 90.8867V92.375H247.469ZM254.418 85.9414C255.512 85.9414 256.34 85.543 256.902 84.7461C257.465 83.9492 257.746 82.9141 257.746 81.6406V81.3945C257.746 80.4258 257.621 79.5742 257.371 78.8398C257.121 78.0977 256.746 77.5156 256.246 77.0938C255.754 76.6719 255.137 76.4609 254.395 76.4609C253.738 76.4609 253.176 76.6094 252.707 76.9062C252.238 77.2031 251.859 77.6094 251.57 78.125V84.3008C251.859 84.8242 252.234 85.2305 252.695 85.5195C253.164 85.8008 253.738 85.9414 254.418 85.9414ZM265.961 87.7461C264.641 87.7461 263.637 87.4258 262.949 86.7852C262.262 86.1367 261.918 85.2266 261.918 84.0547C261.918 83.25 262.137 82.5508 262.574 81.957C263.02 81.3555 263.66 80.8906 264.496 80.5625C265.332 80.2266 266.332 80.0586 267.496 80.0586H269.758V78.8164C269.758 78.0508 269.523 77.457 269.055 77.0352C268.594 76.6133 267.941 76.4023 267.098 76.4023C266.566 76.4023 266.105 76.4688 265.715 76.6016C265.324 76.7266 264.969 76.9023 264.648 77.1289L264.402 78.8984H262.621V75.9922C263.191 75.5312 263.855 75.1836 264.613 74.9492C265.371 74.707 266.211 74.5859 267.133 74.5859C268.672 74.5859 269.879 74.9531 270.754 75.6875C271.629 76.4219 272.066 77.4727 272.066 78.8398V84.9453C272.066 85.1094 272.066 85.2695 272.066 85.4258C272.074 85.582 272.086 85.7383 272.102 85.8945L273.332 86.0234V87.5H270.016C269.945 87.1562 269.891 86.8477 269.852 86.5742C269.812 86.3008 269.785 86.0273 269.77 85.7539C269.324 86.3242 268.766 86.8008 268.094 87.1836C267.43 87.5586 266.719 87.7461 265.961 87.7461ZM266.301 85.8125C267.066 85.8125 267.766 85.6289 268.398 85.2617C269.031 84.8945 269.484 84.4531 269.758 83.9375V81.6406H267.414C266.352 81.6406 265.555 81.8945 265.023 82.4023C264.492 82.9102 264.227 83.4766 264.227 84.1016C264.227 84.6562 264.398 85.082 264.742 85.3789C265.086 85.668 265.605 85.8125 266.301 85.8125ZM280.691 92.6211C280.082 92.6211 279.422 92.5352 278.711 92.3633C278 92.1992 277.375 91.9727 276.836 91.6836L277.434 89.8906C277.863 90.1172 278.371 90.3047 278.957 90.4531C279.543 90.6016 280.113 90.6758 280.668 90.6758C281.699 90.6758 282.453 90.3867 282.93 89.8086C283.414 89.2305 283.656 88.4062 283.656 87.3359V86.1289C283.242 86.6602 282.746 87.0625 282.168 87.3359C281.59 87.6094 280.926 87.7461 280.176 87.7461C279.145 87.7461 278.254 87.4922 277.504 86.9844C276.754 86.4688 276.176 85.7539 275.77 84.8398C275.371 83.918 275.172 82.8516 275.172 81.6406V81.3945C275.172 80.0352 275.371 78.8438 275.77 77.8203C276.176 76.7969 276.754 76.0039 277.504 75.4414C278.254 74.8711 279.152 74.5859 280.199 74.5859C280.996 74.5859 281.695 74.7422 282.297 75.0547C282.898 75.3672 283.402 75.8203 283.809 76.4141L284.02 74.8203H285.965V87.3359C285.965 88.4297 285.758 89.3711 285.344 90.1602C284.938 90.9492 284.34 91.5547 283.551 91.9766C282.77 92.4062 281.816 92.6211 280.691 92.6211ZM280.75 85.8711C281.445 85.8711 282.027 85.7148 282.496 85.4023C282.965 85.082 283.352 84.6328 283.656 84.0547V78.2188C283.359 77.6797 282.973 77.2539 282.496 76.9414C282.02 76.6211 281.445 76.4609 280.773 76.4609C280.039 76.4609 279.426 76.6719 278.934 77.0938C278.449 77.5156 278.086 78.0977 277.844 78.8398C277.602 79.5742 277.48 80.4258 277.48 81.3945V81.6406C277.48 82.9141 277.75 83.9375 278.289 84.7109C278.828 85.4844 279.648 85.8711 280.75 85.8711ZM285.613 76.707L284.711 74.8203H287.535V76.2969L285.613 76.707ZM294.402 87.7461C293.23 87.7461 292.211 87.4805 291.344 86.9492C290.477 86.4102 289.805 85.6641 289.328 84.7109C288.859 83.7578 288.625 82.6562 288.625 81.4062V80.8906C288.625 79.6875 288.871 78.6133 289.363 77.668C289.863 76.7148 290.523 75.9648 291.344 75.418C292.172 74.8633 293.074 74.5859 294.051 74.5859C295.191 74.5859 296.145 74.8203 296.91 75.2891C297.684 75.7578 298.266 76.418 298.656 77.2695C299.047 78.1133 299.242 79.1094 299.242 80.2578V81.6992H291.016L290.98 81.7578C290.996 82.5703 291.137 83.293 291.402 83.9258C291.676 84.5508 292.066 85.043 292.574 85.4023C293.082 85.7617 293.691 85.9414 294.402 85.9414C295.184 85.9414 295.867 85.832 296.453 85.6133C297.047 85.3867 297.559 85.0781 297.988 84.6875L298.891 86.1875C298.438 86.625 297.836 86.9961 297.086 87.3008C296.344 87.5977 295.449 87.7461 294.402 87.7461ZM291.086 79.8945H296.934V79.5898C296.934 78.9805 296.824 78.4375 296.605 77.9609C296.395 77.4766 296.074 77.0977 295.645 76.8242C295.223 76.543 294.691 76.4023 294.051 76.4023C293.535 76.4023 293.066 76.5547 292.645 76.8594C292.223 77.1562 291.875 77.5625 291.602 78.0781C291.328 78.5938 291.148 79.1797 291.062 79.8359L291.086 79.8945Z" fill="#0B0A07"/>
<path d="M508.531 87.5V86.0234L510.441 85.6953V83.5625H502.777V82.2617L510.301 70.4375H512.738V81.7578H515.094V83.5625H512.738V85.6953L514.648 86.0234V87.5H508.531ZM505.238 81.7578H510.441V73.7305L510.371 73.707L510.137 74.3281L505.238 81.7578Z" fill="#0B0A07"/>
<path d="M585.617 87.5V85.918L591.207 79.707C591.871 78.9648 592.391 78.332 592.766 77.8086C593.141 77.2773 593.402 76.7969 593.551 76.3672C593.699 75.9375 593.773 75.4922 593.773 75.0312C593.773 74.1797 593.516 73.4648 593 72.8867C592.484 72.3008 591.746 72.0078 590.785 72.0078C589.785 72.0078 589.004 72.3086 588.441 72.9102C587.887 73.5117 587.609 74.3633 587.609 75.4648H585.395L585.371 75.3945C585.348 74.4102 585.555 73.5273 585.992 72.7461C586.43 71.957 587.062 71.3359 587.891 70.8828C588.727 70.4219 589.719 70.1914 590.867 70.1914C591.945 70.1914 592.871 70.3984 593.645 70.8125C594.426 71.2188 595.027 71.7773 595.449 72.4883C595.871 73.1992 596.082 74.0156 596.082 74.9375C596.082 75.5625 595.957 76.1836 595.707 76.8008C595.465 77.418 595.105 78.0508 594.629 78.6992C594.16 79.3477 593.594 80.0312 592.93 80.75L588.441 85.6367L588.465 85.6953H594.523L594.711 83.7383H596.668V87.5H585.617ZM604.602 87.7461C602.93 87.7461 601.605 87.1641 600.629 86C599.652 84.8359 599.164 83.168 599.164 80.9961V76.9531C599.164 74.7812 599.648 73.1133 600.617 71.9492C601.586 70.7773 602.906 70.1914 604.578 70.1914C606.258 70.1914 607.586 70.7773 608.562 71.9492C609.539 73.1133 610.027 74.7812 610.027 76.9531V80.9961C610.027 83.1758 609.543 84.8477 608.574 86.0117C607.605 87.168 606.281 87.7461 604.602 87.7461ZM604.602 85.9414C605.625 85.9414 606.398 85.5664 606.922 84.8164C607.453 84.0664 607.719 82.9492 607.719 81.4648V76.4609C607.719 74.9844 607.449 73.875 606.91 73.1328C606.379 72.3828 605.602 72.0078 604.578 72.0078C603.57 72.0078 602.801 72.3828 602.27 73.1328C601.738 73.875 601.473 74.9844 601.473 76.4609V81.4648C601.473 82.9414 601.742 84.0586 602.281 84.8164C602.82 85.5664 603.594 85.9414 604.602 85.9414ZM612.57 87.5V85.918L618.16 79.707C618.824 78.9648 619.344 78.332 619.719 77.8086C620.094 77.2773 620.355 76.7969 620.504 76.3672C620.652 75.9375 620.727 75.4922 620.727 75.0312C620.727 74.1797 620.469 73.4648 619.953 72.8867C619.438 72.3008 618.699 72.0078 617.738 72.0078C616.738 72.0078 615.957 72.3086 615.395 72.9102C614.84 73.5117 614.562 74.3633 614.562 75.4648H612.348L612.324 75.3945C612.301 74.4102 612.508 73.5273 612.945 72.7461C613.383 71.957 614.016 71.3359 614.844 70.8828C615.68 70.4219 616.672 70.1914 617.82 70.1914C618.898 70.1914 619.824 70.3984 620.598 70.8125C621.379 71.2188 621.98 71.7773 622.402 72.4883C622.824 73.1992 623.035 74.0156 623.035 74.9375C623.035 75.5625 622.91 76.1836 622.66 76.8008C622.418 77.418 622.059 78.0508 621.582 78.6992C621.113 79.3477 620.547 80.0312 619.883 80.75L615.395 85.6367L615.418 85.6953H621.477L621.664 83.7383H623.621V87.5H612.57ZM630.91 87.7461C629.871 87.7461 628.945 87.5586 628.133 87.1836C627.32 86.8008 626.684 86.2617 626.223 85.5664C625.77 84.8633 625.555 84.0312 625.578 83.0703L625.613 83H627.816C627.816 83.6016 627.941 84.1211 628.191 84.5586C628.441 84.9961 628.797 85.3359 629.258 85.5781C629.719 85.8203 630.27 85.9414 630.91 85.9414C631.887 85.9414 632.652 85.6758 633.207 85.1445C633.762 84.6133 634.039 83.8281 634.039 82.7891C634.039 81.7344 633.793 80.957 633.301 80.457C632.809 79.957 632.031 79.707 630.969 79.707H628.953V77.9023H630.969C631.648 77.9023 632.195 77.7891 632.609 77.5625C633.023 77.3281 633.32 76.9961 633.5 76.5664C633.688 76.1289 633.781 75.6055 633.781 74.9961C633.781 74.0195 633.539 73.2773 633.055 72.7695C632.57 72.2617 631.855 72.0078 630.91 72.0078C630.309 72.0078 629.785 72.1289 629.34 72.3711C628.895 72.6055 628.547 72.9414 628.297 73.3789C628.055 73.8086 627.934 74.3164 627.934 74.9023H625.719L625.695 74.832C625.672 73.9727 625.875 73.1914 626.305 72.4883C626.742 71.7852 627.355 71.2266 628.145 70.8125C628.941 70.3984 629.863 70.1914 630.91 70.1914C632.488 70.1914 633.746 70.6133 634.684 71.457C635.621 72.293 636.09 73.4883 636.09 75.043C636.09 75.7461 635.875 76.4492 635.445 77.1523C635.023 77.8477 634.387 78.3789 633.535 78.7461C634.559 79.082 635.281 79.6094 635.703 80.3281C636.133 81.0469 636.348 81.8516 636.348 82.7422C636.348 83.7812 636.113 84.6758 635.645 85.4258C635.184 86.168 634.543 86.7422 633.723 87.1484C632.902 87.5469 631.965 87.7461 630.91 87.7461ZM639.465 81.1953V79.3906H645.195V81.1953H639.465ZM653.867 87.7461C652.195 87.7461 650.871 87.1641 649.895 86C648.918 84.8359 648.43 83.168 648.43 80.9961V76.9531C648.43 74.7812 648.914 73.1133 649.883 71.9492C650.852 70.7773 652.172 70.1914 653.844 70.1914C655.523 70.1914 656.852 70.7773 657.828 71.9492C658.805 73.1133 659.293 74.7812 659.293 76.9531V80.9961C659.293 83.1758 658.809 84.8477 657.84 86.0117C656.871 87.168 655.547 87.7461 653.867 87.7461ZM653.867 85.9414C654.891 85.9414 655.664 85.5664 656.188 84.8164C656.719 84.0664 656.984 82.9492 656.984 81.4648V76.4609C656.984 74.9844 656.715 73.875 656.176 73.1328C655.645 72.3828 654.867 72.0078 653.844 72.0078C652.836 72.0078 652.066 72.3828 651.535 73.1328C651.004 73.875 650.738 74.9844 650.738 76.4609V81.4648C650.738 82.9414 651.008 84.0586 651.547 84.8164C652.086 85.5664 652.859 85.9414 653.867 85.9414ZM662.117 87.5V86.0234L664.754 85.6953V72.9102L662.07 72.957V71.5156L667.062 70.4375V85.6953L669.688 86.0234V87.5H662.117ZM672.395 81.1953V79.3906H678.125V81.1953H672.395ZM681.359 87.5V86.0234L683.996 85.6953V72.9102L681.312 72.957V71.5156L686.305 70.4375V85.6953L688.93 86.0234V87.5H681.359ZM696.688 87.7461C695.016 87.7461 693.691 87.1641 692.715 86C691.738 84.8359 691.25 83.168 691.25 80.9961V76.9531C691.25 74.7812 691.734 73.1133 692.703 71.9492C693.672 70.7773 694.992 70.1914 696.664 70.1914C698.344 70.1914 699.672 70.7773 700.648 71.9492C701.625 73.1133 702.113 74.7812 702.113 76.9531V80.9961C702.113 83.1758 701.629 84.8477 700.66 86.0117C699.691 87.168 698.367 87.7461 696.688 87.7461ZM696.688 85.9414C697.711 85.9414 698.484 85.5664 699.008 84.8164C699.539 84.0664 699.805 82.9492 699.805 81.4648V76.4609C699.805 74.9844 699.535 73.875 698.996 73.1328C698.465 72.3828 697.688 72.0078 696.664 72.0078C695.656 72.0078 694.887 72.3828 694.355 73.1328C693.824 73.875 693.559 74.9844 693.559 76.4609V81.4648C693.559 82.9414 693.828 84.0586 694.367 84.8164C694.906 85.5664 695.68 85.9414 696.688 85.9414Z" fill="#0B0A07"/>
<rect x="51.5" y="51.5" width="686" height="54" rx="15.5" stroke="#0B0A07" stroke-width="3"/>
<rect x="51.5" y="123.5" width="686" height="54" rx="15.5" fill="white"/>
<path d="M70.9492 159.5V158.023L72.8594 157.695V144.254L70.9492 143.926V142.438H72.8594H77.6289C79.1367 142.438 80.4492 142.797 81.5664 143.516C82.6914 144.234 83.5664 145.223 84.1914 146.48C84.8164 147.738 85.1289 149.176 85.1289 150.793V151.156C85.1289 152.734 84.8281 154.156 84.2266 155.422C83.625 156.68 82.7695 157.676 81.6602 158.41C80.5586 159.137 79.2539 159.5 77.7461 159.5H70.9492ZM75.168 157.695H77.6289C78.707 157.695 79.6328 157.402 80.4062 156.816C81.1797 156.223 81.7734 155.434 82.1875 154.449C82.6094 153.457 82.8203 152.359 82.8203 151.156V150.77C82.8203 149.527 82.6094 148.418 82.1875 147.441C81.7734 146.457 81.1797 145.68 80.4062 145.109C79.6328 144.539 78.707 144.254 77.6289 144.254H75.168V157.695ZM92.5352 159.746C91.3633 159.746 90.3438 159.48 89.4766 158.949C88.6094 158.41 87.9375 157.664 87.4609 156.711C86.9922 155.758 86.7578 154.656 86.7578 153.406V152.891C86.7578 151.688 87.0039 150.613 87.4961 149.668C87.9961 148.715 88.6562 147.965 89.4766 147.418C90.3047 146.863 91.207 146.586 92.1836 146.586C93.3242 146.586 94.2773 146.82 95.043 147.289C95.8164 147.758 96.3984 148.418 96.7891 149.27C97.1797 150.113 97.375 151.109 97.375 152.258V153.699H89.1484L89.1133 153.758C89.1289 154.57 89.2695 155.293 89.5352 155.926C89.8086 156.551 90.1992 157.043 90.707 157.402C91.2148 157.762 91.8242 157.941 92.5352 157.941C93.3164 157.941 94 157.832 94.5859 157.613C95.1797 157.387 95.6914 157.078 96.1211 156.688L97.0234 158.188C96.5703 158.625 95.9688 158.996 95.2188 159.301C94.4766 159.598 93.582 159.746 92.5352 159.746ZM89.2188 151.895H95.0664V151.59C95.0664 150.98 94.957 150.438 94.7383 149.961C94.5273 149.477 94.207 149.098 93.7773 148.824C93.3555 148.543 92.8242 148.402 92.1836 148.402C91.668 148.402 91.1992 148.555 90.7773 148.859C90.3555 149.156 90.0078 149.562 89.7344 150.078C89.4609 150.594 89.2812 151.18 89.1953 151.836L89.2188 151.895ZM98.8281 164.375V162.887L100.621 162.559V148.637L98.7109 148.309V146.82H102.602L102.812 148.367C103.234 147.789 103.746 147.348 104.348 147.043C104.957 146.738 105.66 146.586 106.457 146.586C107.504 146.586 108.398 146.871 109.141 147.441C109.883 148.004 110.449 148.797 110.84 149.82C111.23 150.836 111.426 152.027 111.426 153.395V153.641C111.426 154.859 111.227 155.926 110.828 156.84C110.438 157.754 109.875 158.469 109.141 158.984C108.406 159.492 107.523 159.746 106.492 159.746C105.711 159.746 105.023 159.617 104.43 159.359C103.844 159.094 103.344 158.703 102.93 158.188V162.559L104.945 162.887V164.375H98.8281ZM105.777 157.941C106.871 157.941 107.699 157.543 108.262 156.746C108.824 155.949 109.105 154.914 109.105 153.641V153.395C109.105 152.426 108.98 151.574 108.73 150.84C108.48 150.098 108.105 149.516 107.605 149.094C107.113 148.672 106.496 148.461 105.754 148.461C105.098 148.461 104.535 148.609 104.066 148.906C103.598 149.203 103.219 149.609 102.93 150.125V156.301C103.219 156.824 103.594 157.23 104.055 157.52C104.523 157.801 105.098 157.941 105.777 157.941ZM112.984 159.5V158.023L114.895 157.695V143.035L112.984 142.707V141.219H117.203V157.695L119.113 158.023V159.5H112.984ZM126.262 159.746C125.09 159.746 124.078 159.473 123.227 158.926C122.383 158.371 121.73 157.609 121.27 156.641C120.809 155.664 120.578 154.551 120.578 153.301V153.043C120.578 151.793 120.809 150.684 121.27 149.715C121.73 148.738 122.383 147.973 123.227 147.418C124.078 146.863 125.082 146.586 126.238 146.586C127.41 146.586 128.418 146.863 129.262 147.418C130.113 147.973 130.77 148.734 131.23 149.703C131.691 150.672 131.922 151.785 131.922 153.043V153.301C131.922 154.559 131.691 155.676 131.23 156.652C130.77 157.621 130.117 158.379 129.273 158.926C128.43 159.473 127.426 159.746 126.262 159.746ZM126.262 157.941C126.996 157.941 127.609 157.742 128.102 157.344C128.602 156.938 128.977 156.387 129.227 155.691C129.484 154.988 129.613 154.191 129.613 153.301V153.043C129.613 152.152 129.484 151.359 129.227 150.664C128.977 149.961 128.602 149.41 128.102 149.012C127.602 148.605 126.98 148.402 126.238 148.402C125.504 148.402 124.887 148.605 124.387 149.012C123.887 149.41 123.512 149.961 123.262 150.664C123.012 151.359 122.887 152.152 122.887 153.043V153.301C122.887 154.191 123.012 154.988 123.262 155.691C123.512 156.387 123.887 156.938 124.387 157.344C124.895 157.742 125.52 157.941 126.262 157.941ZM136.035 164.621C135.855 164.621 135.621 164.598 135.332 164.551C135.043 164.512 134.82 164.473 134.664 164.434L134.898 162.617C135.031 162.633 135.215 162.645 135.449 162.652C135.684 162.668 135.844 162.676 135.93 162.676C136.422 162.676 136.82 162.488 137.125 162.113C137.438 161.738 137.727 161.227 137.992 160.578L138.543 159.242L134.055 148.496L132.695 148.309V146.82H138.016V148.309L136.48 148.543L138.953 154.883L139.551 156.535H139.621L142.551 148.543L140.934 148.309V146.82H146.148V148.309L144.836 148.496L139.844 161.445C139.609 162.055 139.324 162.598 138.988 163.074C138.66 163.559 138.254 163.938 137.77 164.211C137.293 164.484 136.715 164.621 136.035 164.621ZM158.629 159.5L154.645 144.102L153.203 143.926V142.438H158.734V143.926L156.965 144.195L159.191 153.582L159.707 155.773L159.777 155.785L160.457 153.594L163.891 142.438H165.918L169.387 153.594L170.055 155.914H170.125L170.734 153.594L172.938 144.195L171.027 143.926V142.438H176.465V143.926L175.117 144.102L171.297 159.5H169.105L165.402 147.688L164.934 145.965H164.863L164.406 147.688L160.691 159.5H158.629ZM178.27 159.5V158.023L180.18 157.695V144.254L178.27 143.926V142.438H190.902V146.539H189.051L188.793 144.219H182.488V149.773H188.781V151.59H182.488V157.766H189.168L189.426 155.41H191.266V159.5H178.27ZM193.574 159.5V158.023L195.484 157.695V144.254L193.574 143.926V142.438H195.484H200.934C202.715 142.438 204.105 142.824 205.105 143.598C206.113 144.363 206.617 145.516 206.617 147.055C206.617 147.812 206.375 148.492 205.891 149.094C205.414 149.688 204.781 150.129 203.992 150.418C204.68 150.559 205.27 150.836 205.762 151.25C206.254 151.656 206.633 152.156 206.898 152.75C207.172 153.336 207.309 153.98 207.309 154.684C207.309 156.246 206.801 157.441 205.785 158.27C204.77 159.09 203.395 159.5 201.66 159.5H193.574ZM197.793 157.695H201.66C202.715 157.695 203.531 157.438 204.109 156.922C204.695 156.398 204.988 155.66 204.988 154.707C204.988 154.035 204.879 153.461 204.66 152.984C204.449 152.508 204.121 152.141 203.676 151.883C203.238 151.625 202.684 151.496 202.012 151.496H197.793V157.695ZM197.793 149.691H201.531C202.359 149.691 203.027 149.453 203.535 148.977C204.051 148.492 204.309 147.836 204.309 147.008C204.309 146.086 204.02 145.398 203.441 144.945C202.863 144.484 202.027 144.254 200.934 144.254H197.793V149.691ZM219.062 159.746C217.742 159.746 216.738 159.426 216.051 158.785C215.363 158.137 215.02 157.227 215.02 156.055C215.02 155.25 215.238 154.551 215.676 153.957C216.121 153.355 216.762 152.891 217.598 152.562C218.434 152.227 219.434 152.059 220.598 152.059H222.859V150.816C222.859 150.051 222.625 149.457 222.156 149.035C221.695 148.613 221.043 148.402 220.199 148.402C219.668 148.402 219.207 148.469 218.816 148.602C218.426 148.727 218.07 148.902 217.75 149.129L217.504 150.898H215.723V147.992C216.293 147.531 216.957 147.184 217.715 146.949C218.473 146.707 219.312 146.586 220.234 146.586C221.773 146.586 222.98 146.953 223.855 147.688C224.73 148.422 225.168 149.473 225.168 150.84V156.945C225.168 157.109 225.168 157.27 225.168 157.426C225.176 157.582 225.188 157.738 225.203 157.895L226.434 158.023V159.5H223.117C223.047 159.156 222.992 158.848 222.953 158.574C222.914 158.301 222.887 158.027 222.871 157.754C222.426 158.324 221.867 158.801 221.195 159.184C220.531 159.559 219.82 159.746 219.062 159.746ZM219.402 157.812C220.168 157.812 220.867 157.629 221.5 157.262C222.133 156.895 222.586 156.453 222.859 155.938V153.641H220.516C219.453 153.641 218.656 153.895 218.125 154.402C217.594 154.91 217.328 155.477 217.328 156.102C217.328 156.656 217.5 157.082 217.844 157.379C218.188 157.668 218.707 157.812 219.402 157.812ZM227.875 164.375V162.887L229.668 162.559V148.637L227.758 148.309V146.82H231.648L231.859 148.367C232.281 147.789 232.793 147.348 233.395 147.043C234.004 146.738 234.707 146.586 235.504 146.586C236.551 146.586 237.445 146.871 238.188 147.441C238.93 148.004 239.496 148.797 239.887 149.82C240.277 150.836 240.473 152.027 240.473 153.395V153.641C240.473 154.859 240.273 155.926 239.875 156.84C239.484 157.754 238.922 158.469 238.188 158.984C237.453 159.492 236.57 159.746 235.539 159.746C234.758 159.746 234.07 159.617 233.477 159.359C232.891 159.094 232.391 158.703 231.977 158.188V162.559L233.992 162.887V164.375H227.875ZM234.824 157.941C235.918 157.941 236.746 157.543 237.309 156.746C237.871 155.949 238.152 154.914 238.152 153.641V153.395C238.152 152.426 238.027 151.574 237.777 150.84C237.527 150.098 237.152 149.516 236.652 149.094C236.16 148.672 235.543 148.461 234.801 148.461C234.145 148.461 233.582 148.609 233.113 148.906C232.645 149.203 232.266 149.609 231.977 150.125V156.301C232.266 156.824 232.641 157.23 233.102 157.52C233.57 157.801 234.145 157.941 234.824 157.941ZM241.914 164.375V162.887L243.707 162.559V148.637L241.797 148.309V146.82H245.688L245.898 148.367C246.32 147.789 246.832 147.348 247.434 147.043C248.043 146.738 248.746 146.586 249.543 146.586C250.59 146.586 251.484 146.871 252.227 147.441C252.969 148.004 253.535 148.797 253.926 149.82C254.316 150.836 254.512 152.027 254.512 153.395V153.641C254.512 154.859 254.312 155.926 253.914 156.84C253.523 157.754 252.961 158.469 252.227 158.984C251.492 159.492 250.609 159.746 249.578 159.746C248.797 159.746 248.109 159.617 247.516 159.359C246.93 159.094 246.43 158.703 246.016 158.188V162.559L248.031 162.887V164.375H241.914ZM248.863 157.941C249.957 157.941 250.785 157.543 251.348 156.746C251.91 155.949 252.191 154.914 252.191 153.641V153.395C252.191 152.426 252.066 151.574 251.816 150.84C251.566 150.098 251.191 149.516 250.691 149.094C250.199 148.672 249.582 148.461 248.84 148.461C248.184 148.461 247.621 148.609 247.152 148.906C246.684 149.203 246.305 149.609 246.016 150.125V156.301C246.305 156.824 246.68 157.23 247.141 157.52C247.609 157.801 248.184 157.941 248.863 157.941ZM256.07 159.5V158.023L257.98 157.695V143.035L256.07 142.707V141.219H260.289V157.695L262.199 158.023V159.5H256.07ZM263.77 159.5V158.023L265.68 157.695V148.637L263.77 148.309V146.82H267.988V157.695L269.898 158.023V159.5H263.77ZM265.562 143.691V141.219H267.988V143.691H265.562ZM277.223 159.746C276.074 159.746 275.074 159.48 274.223 158.949C273.371 158.41 272.711 157.664 272.242 156.711C271.773 155.758 271.539 154.656 271.539 153.406V152.914C271.539 151.711 271.766 150.633 272.219 149.68C272.672 148.727 273.324 147.973 274.176 147.418C275.027 146.863 276.043 146.586 277.223 146.586C278.246 146.586 279.141 146.754 279.906 147.09C280.68 147.426 281.328 147.887 281.852 148.473L281.91 151.52H280.105L279.707 149.305C279.441 149.031 279.109 148.812 278.711 148.648C278.312 148.484 277.844 148.402 277.305 148.402C276.617 148.402 276.012 148.605 275.488 149.012C274.973 149.418 274.57 149.961 274.281 150.641C273.992 151.32 273.848 152.078 273.848 152.914V153.406C273.848 154.328 273.98 155.129 274.246 155.809C274.52 156.488 274.906 157.016 275.406 157.391C275.914 157.758 276.516 157.941 277.211 157.941C277.992 157.941 278.641 157.727 279.156 157.297C279.672 156.867 279.988 156.277 280.105 155.527H282.18L282.203 155.598C282.164 156.324 281.949 157.004 281.559 157.637C281.168 158.27 280.609 158.781 279.883 159.172C279.164 159.555 278.277 159.746 277.223 159.746ZM288.344 159.746C287.023 159.746 286.02 159.426 285.332 158.785C284.645 158.137 284.301 157.227 284.301 156.055C284.301 155.25 284.52 154.551 284.957 153.957C285.402 153.355 286.043 152.891 286.879 152.562C287.715 152.227 288.715 152.059 289.879 152.059H292.141V150.816C292.141 150.051 291.906 149.457 291.438 149.035C290.977 148.613 290.324 148.402 289.48 148.402C288.949 148.402 288.488 148.469 288.098 148.602C287.707 148.727 287.352 148.902 287.031 149.129L286.785 150.898H285.004V147.992C285.574 147.531 286.238 147.184 286.996 146.949C287.754 146.707 288.594 146.586 289.516 146.586C291.055 146.586 292.262 146.953 293.137 147.688C294.012 148.422 294.449 149.473 294.449 150.84V156.945C294.449 157.109 294.449 157.27 294.449 157.426C294.457 157.582 294.469 157.738 294.484 157.895L295.715 158.023V159.5H292.398C292.328 159.156 292.273 158.848 292.234 158.574C292.195 158.301 292.168 158.027 292.152 157.754C291.707 158.324 291.148 158.801 290.477 159.184C289.812 159.559 289.102 159.746 288.344 159.746ZM288.684 157.812C289.449 157.812 290.148 157.629 290.781 157.262C291.414 156.895 291.867 156.453 292.141 155.938V153.641H289.797C288.734 153.641 287.938 153.895 287.406 154.402C286.875 154.91 286.609 155.477 286.609 156.102C286.609 156.656 286.781 157.082 287.125 157.379C287.469 157.668 287.988 157.812 288.684 157.812ZM301.984 159.699C301.047 159.699 300.301 159.426 299.746 158.879C299.199 158.324 298.926 157.441 298.926 156.23V148.531H296.922V146.82H298.926V143.762H301.234V146.82H303.988V148.531H301.234V156.23C301.234 156.84 301.355 157.289 301.598 157.578C301.84 157.867 302.164 158.012 302.57 158.012C302.844 158.012 303.148 157.988 303.484 157.941C303.82 157.887 304.082 157.84 304.27 157.801L304.586 159.312C304.25 159.414 303.836 159.504 303.344 159.582C302.859 159.66 302.406 159.699 301.984 159.699ZM305.98 159.5V158.023L307.891 157.695V148.637L305.98 148.309V146.82H310.199V157.695L312.109 158.023V159.5H305.98ZM307.773 143.691V141.219H310.199V143.691H307.773ZM319.434 159.746C318.262 159.746 317.25 159.473 316.398 158.926C315.555 158.371 314.902 157.609 314.441 156.641C313.98 155.664 313.75 154.551 313.75 153.301V153.043C313.75 151.793 313.98 150.684 314.441 149.715C314.902 148.738 315.555 147.973 316.398 147.418C317.25 146.863 318.254 146.586 319.41 146.586C320.582 146.586 321.59 146.863 322.434 147.418C323.285 147.973 323.941 148.734 324.402 149.703C324.863 150.672 325.094 151.785 325.094 153.043V153.301C325.094 154.559 324.863 155.676 324.402 156.652C323.941 157.621 323.289 158.379 322.445 158.926C321.602 159.473 320.598 159.746 319.434 159.746ZM319.434 157.941C320.168 157.941 320.781 157.742 321.273 157.344C321.773 156.938 322.148 156.387 322.398 155.691C322.656 154.988 322.785 154.191 322.785 153.301V153.043C322.785 152.152 322.656 151.359 322.398 150.664C322.148 149.961 321.773 149.41 321.273 149.012C320.773 148.605 320.152 148.402 319.41 148.402C318.676 148.402 318.059 148.605 317.559 149.012C317.059 149.41 316.684 149.961 316.434 150.664C316.184 151.359 316.059 152.152 316.059 153.043V153.301C316.059 154.191 316.184 154.988 316.434 155.691C316.684 156.387 317.059 156.938 317.559 157.344C318.066 157.742 318.691 157.941 319.434 157.941ZM326.875 159.5V158.023L328.785 157.695V148.637L326.875 148.309V146.82H330.848L331.012 148.707C331.434 148.035 331.961 147.516 332.594 147.148C333.234 146.773 333.961 146.586 334.773 146.586C336.141 146.586 337.199 146.988 337.949 147.793C338.699 148.59 339.074 149.824 339.074 151.496V157.695L340.984 158.023V159.5H334.855V158.023L336.766 157.695V151.543C336.766 150.426 336.543 149.633 336.098 149.164C335.66 148.695 334.988 148.461 334.082 148.461C333.418 148.461 332.828 148.621 332.312 148.941C331.805 149.262 331.398 149.699 331.094 150.254V157.695L333.004 158.023V159.5H326.875Z" fill="#0B0A07"/>
<path d="M508.73 159.746C507.691 159.746 506.766 159.559 505.953 159.184C505.141 158.801 504.504 158.262 504.043 157.566C503.59 156.863 503.375 156.031 503.398 155.07L503.434 155H505.637C505.637 155.602 505.762 156.121 506.012 156.559C506.262 156.996 506.617 157.336 507.078 157.578C507.539 157.82 508.09 157.941 508.73 157.941C509.707 157.941 510.473 157.676 511.027 157.145C511.582 156.613 511.859 155.828 511.859 154.789C511.859 153.734 511.613 152.957 511.121 152.457C510.629 151.957 509.852 151.707 508.789 151.707H506.773V149.902H508.789C509.469 149.902 510.016 149.789 510.43 149.562C510.844 149.328 511.141 148.996 511.32 148.566C511.508 148.129 511.602 147.605 511.602 146.996C511.602 146.02 511.359 145.277 510.875 144.77C510.391 144.262 509.676 144.008 508.73 144.008C508.129 144.008 507.605 144.129 507.16 144.371C506.715 144.605 506.367 144.941 506.117 145.379C505.875 145.809 505.754 146.316 505.754 146.902H503.539L503.516 146.832C503.492 145.973 503.695 145.191 504.125 144.488C504.562 143.785 505.176 143.227 505.965 142.812C506.762 142.398 507.684 142.191 508.73 142.191C510.309 142.191 511.566 142.613 512.504 143.457C513.441 144.293 513.91 145.488 513.91 147.043C513.91 147.746 513.695 148.449 513.266 149.152C512.844 149.848 512.207 150.379 511.355 150.746C512.379 151.082 513.102 151.609 513.523 152.328C513.953 153.047 514.168 153.852 514.168 154.742C514.168 155.781 513.934 156.676 513.465 157.426C513.004 158.168 512.363 158.742 511.543 159.148C510.723 159.547 509.785 159.746 508.73 159.746Z" fill="#0B0A07"/>
<path d="M583.93 159.5V157.918L589.52 151.707C590.184 150.965 590.703 150.332 591.078 149.809C591.453 149.277 591.715 148.797 591.863 148.367C592.012 147.938 592.086 147.492 592.086 147.031C592.086 146.18 591.828 145.465 591.312 144.887C590.797 144.301 590.059 144.008 589.098 144.008C588.098 144.008 587.316 144.309 586.754 144.91C586.199 145.512 585.922 146.363 585.922 147.465H583.707L583.684 147.395C583.66 146.41 583.867 145.527 584.305 144.746C584.742 143.957 585.375 143.336 586.203 142.883C587.039 142.422 588.031 142.191 589.18 142.191C590.258 142.191 591.184 142.398 591.957 142.812C592.738 143.219 593.34 143.777 593.762 144.488C594.184 145.199 594.395 146.016 594.395 146.938C594.395 147.562 594.27 148.184 594.02 148.801C593.777 149.418 593.418 150.051 592.941 150.699C592.473 151.348 591.906 152.031 591.242 152.75L586.754 157.637L586.777 157.695H592.836L593.023 155.738H594.98V159.5H583.93ZM602.914 159.746C601.242 159.746 599.918 159.164 598.941 158C597.965 156.836 597.477 155.168 597.477 152.996V148.953C597.477 146.781 597.961 145.113 598.93 143.949C599.898 142.777 601.219 142.191 602.891 142.191C604.57 142.191 605.898 142.777 606.875 143.949C607.852 145.113 608.34 146.781 608.34 148.953V152.996C608.34 155.176 607.855 156.848 606.887 158.012C605.918 159.168 604.594 159.746 602.914 159.746ZM602.914 157.941C603.938 157.941 604.711 157.566 605.234 156.816C605.766 156.066 606.031 154.949 606.031 153.465V148.461C606.031 146.984 605.762 145.875 605.223 145.133C604.691 144.383 603.914 144.008 602.891 144.008C601.883 144.008 601.113 144.383 600.582 145.133C600.051 145.875 599.785 146.984 599.785 148.461V153.465C599.785 154.941 600.055 156.059 600.594 156.816C601.133 157.566 601.906 157.941 602.914 157.941ZM610.883 159.5V157.918L616.473 151.707C617.137 150.965 617.656 150.332 618.031 149.809C618.406 149.277 618.668 148.797 618.816 148.367C618.965 147.938 619.039 147.492 619.039 147.031C619.039 146.18 618.781 145.465 618.266 144.887C617.75 144.301 617.012 144.008 616.051 144.008C615.051 144.008 614.27 144.309 613.707 144.91C613.152 145.512 612.875 146.363 612.875 147.465H610.66L610.637 147.395C610.613 146.41 610.82 145.527 611.258 144.746C611.695 143.957 612.328 143.336 613.156 142.883C613.992 142.422 614.984 142.191 616.133 142.191C617.211 142.191 618.137 142.398 618.91 142.812C619.691 143.219 620.293 143.777 620.715 144.488C621.137 145.199 621.348 146.016 621.348 146.938C621.348 147.562 621.223 148.184 620.973 148.801C620.73 149.418 620.371 150.051 619.895 150.699C619.426 151.348 618.859 152.031 618.195 152.75L613.707 157.637L613.73 157.695H619.789L619.977 155.738H621.934V159.5H610.883ZM629.223 159.746C628.184 159.746 627.258 159.559 626.445 159.184C625.633 158.801 624.996 158.262 624.535 157.566C624.082 156.863 623.867 156.031 623.891 155.07L623.926 155H626.129C626.129 155.602 626.254 156.121 626.504 156.559C626.754 156.996 627.109 157.336 627.57 157.578C628.031 157.82 628.582 157.941 629.223 157.941C630.199 157.941 630.965 157.676 631.52 157.145C632.074 156.613 632.352 155.828 632.352 154.789C632.352 153.734 632.105 152.957 631.613 152.457C631.121 151.957 630.344 151.707 629.281 151.707H627.266V149.902H629.281C629.961 149.902 630.508 149.789 630.922 149.562C631.336 149.328 631.633 148.996 631.812 148.566C632 148.129 632.094 147.605 632.094 146.996C632.094 146.02 631.852 145.277 631.367 144.77C630.883 144.262 630.168 144.008 629.223 144.008C628.621 144.008 628.098 144.129 627.652 144.371C627.207 144.605 626.859 144.941 626.609 145.379C626.367 145.809 626.246 146.316 626.246 146.902H624.031L624.008 146.832C623.984 145.973 624.188 145.191 624.617 144.488C625.055 143.785 625.668 143.227 626.457 142.812C627.254 142.398 628.176 142.191 629.223 142.191C630.801 142.191 632.059 142.613 632.996 143.457C633.934 144.293 634.402 145.488 634.402 147.043C634.402 147.746 634.188 148.449 633.758 149.152C633.336 149.848 632.699 150.379 631.848 150.746C632.871 151.082 633.594 151.609 634.016 152.328C634.445 153.047 634.66 153.852 634.66 154.742C634.66 155.781 634.426 156.676 633.957 157.426C633.496 158.168 632.855 158.742 632.035 159.148C631.215 159.547 630.277 159.746 629.223 159.746ZM637.777 153.195V151.391H643.508V153.195H637.777ZM652.18 159.746C650.508 159.746 649.184 159.164 648.207 158C647.23 156.836 646.742 155.168 646.742 152.996V148.953C646.742 146.781 647.227 145.113 648.195 143.949C649.164 142.777 650.484 142.191 652.156 142.191C653.836 142.191 655.164 142.777 656.141 143.949C657.117 145.113 657.605 146.781 657.605 148.953V152.996C657.605 155.176 657.121 156.848 656.152 158.012C655.184 159.168 653.859 159.746 652.18 159.746ZM652.18 157.941C653.203 157.941 653.977 157.566 654.5 156.816C655.031 156.066 655.297 154.949 655.297 153.465V148.461C655.297 146.984 655.027 145.875 654.488 145.133C653.957 144.383 653.18 144.008 652.156 144.008C651.148 144.008 650.379 144.383 649.848 145.133C649.316 145.875 649.051 146.984 649.051 148.461V153.465C649.051 154.941 649.32 156.059 649.859 156.816C650.398 157.566 651.172 157.941 652.18 157.941ZM660.148 159.5V157.918L665.738 151.707C666.402 150.965 666.922 150.332 667.297 149.809C667.672 149.277 667.934 148.797 668.082 148.367C668.23 147.938 668.305 147.492 668.305 147.031C668.305 146.18 668.047 145.465 667.531 144.887C667.016 144.301 666.277 144.008 665.316 144.008C664.316 144.008 663.535 144.309 662.973 144.91C662.418 145.512 662.141 146.363 662.141 147.465H659.926L659.902 147.395C659.879 146.41 660.086 145.527 660.523 144.746C660.961 143.957 661.594 143.336 662.422 142.883C663.258 142.422 664.25 142.191 665.398 142.191C666.477 142.191 667.402 142.398 668.176 142.812C668.957 143.219 669.559 143.777 669.98 144.488C670.402 145.199 670.613 146.016 670.613 146.938C670.613 147.562 670.488 148.184 670.238 148.801C669.996 149.418 669.637 150.051 669.16 150.699C668.691 151.348 668.125 152.031 667.461 152.75L662.973 157.637L662.996 157.695H669.055L669.242 155.738H671.199V159.5H660.148ZM674.082 153.195V151.391H679.812V153.195H674.082ZM688.484 159.746C686.812 159.746 685.488 159.164 684.512 158C683.535 156.836 683.047 155.168 683.047 152.996V148.953C683.047 146.781 683.531 145.113 684.5 143.949C685.469 142.777 686.789 142.191 688.461 142.191C690.141 142.191 691.469 142.777 692.445 143.949C693.422 145.113 693.91 146.781 693.91 148.953V152.996C693.91 155.176 693.426 156.848 692.457 158.012C691.488 159.168 690.164 159.746 688.484 159.746ZM688.484 157.941C689.508 157.941 690.281 157.566 690.805 156.816C691.336 156.066 691.602 154.949 691.602 153.465V148.461C691.602 146.984 691.332 145.875 690.793 145.133C690.262 144.383 689.484 144.008 688.461 144.008C687.453 144.008 686.684 144.383 686.152 145.133C685.621 145.875 685.355 146.984 685.355 148.461V153.465C685.355 154.941 685.625 156.059 686.164 156.816C686.703 157.566 687.477 157.941 688.484 157.941ZM696.734 159.5V158.023L699.371 157.695V144.91L696.688 144.957V143.516L701.68 142.438V157.695L704.305 158.023V159.5H696.734Z" fill="#0B0A07"/>
<rect x="51.5" y="123.5" width="686" height="54" rx="15.5" stroke="#0B0A07" stroke-width="3"/>
<rect x="51.5" y="195.5" width="686" height="54" rx="15.5" fill="white"/>
<path d="M78.6602 231.746C76.9492 231.746 75.5195 231.371 74.3711 230.621C73.2305 229.871 72.3711 228.844 71.793 227.539C71.2227 226.234 70.9375 224.754 70.9375 223.098V222.852C70.9375 221.18 71.2383 219.695 71.8398 218.398C72.4414 217.094 73.3047 216.066 74.4297 215.316C75.5547 214.566 76.8984 214.191 78.4609 214.191C79.5625 214.191 80.5703 214.363 81.4844 214.707C82.3984 215.051 83.1562 215.488 83.7578 216.02V219.699H81.918L81.6719 217.004C81.4219 216.809 81.1328 216.645 80.8047 216.512C80.4844 216.379 80.125 216.277 79.7266 216.207C79.3359 216.137 78.9102 216.102 78.4492 216.102C77.332 216.102 76.3867 216.391 75.6133 216.969C74.8398 217.539 74.2539 218.328 73.8555 219.336C73.457 220.344 73.2578 221.508 73.2578 222.828V223.098C73.2578 224.527 73.4688 225.75 73.8906 226.766C74.3203 227.773 74.9414 228.543 75.7539 229.074C76.5742 229.605 77.5703 229.871 78.7422 229.871C79.2891 229.871 79.8242 229.805 80.3477 229.672C80.8711 229.539 81.3047 229.367 81.6484 229.156L81.9062 226.777H83.7109V230.48C83.0703 230.879 82.3047 231.191 81.4141 231.418C80.5234 231.637 79.6055 231.746 78.6602 231.746ZM91.7148 231.746C90.543 231.746 89.5312 231.473 88.6797 230.926C87.8359 230.371 87.1836 229.609 86.7227 228.641C86.2617 227.664 86.0312 226.551 86.0312 225.301V225.043C86.0312 223.793 86.2617 222.684 86.7227 221.715C87.1836 220.738 87.8359 219.973 88.6797 219.418C89.5312 218.863 90.5352 218.586 91.6914 218.586C92.8633 218.586 93.8711 218.863 94.7148 219.418C95.5664 219.973 96.2227 220.734 96.6836 221.703C97.1445 222.672 97.375 223.785 97.375 225.043V225.301C97.375 226.559 97.1445 227.676 96.6836 228.652C96.2227 229.621 95.5703 230.379 94.7266 230.926C93.8828 231.473 92.8789 231.746 91.7148 231.746ZM91.7148 229.941C92.4492 229.941 93.0625 229.742 93.5547 229.344C94.0547 228.938 94.4297 228.387 94.6797 227.691C94.9375 226.988 95.0664 226.191 95.0664 225.301V225.043C95.0664 224.152 94.9375 223.359 94.6797 222.664C94.4297 221.961 94.0547 221.41 93.5547 221.012C93.0547 220.605 92.4336 220.402 91.6914 220.402C90.957 220.402 90.3398 220.605 89.8398 221.012C89.3398 221.41 88.9648 221.961 88.7148 222.664C88.4648 223.359 88.3398 224.152 88.3398 225.043V225.301C88.3398 226.191 88.4648 226.988 88.7148 227.691C88.9648 228.387 89.3398 228.938 89.8398 229.344C90.3477 229.742 90.9727 229.941 91.7148 229.941ZM104.559 231.746C103.527 231.746 102.641 231.492 101.898 230.984C101.164 230.469 100.602 229.754 100.211 228.84C99.8203 227.926 99.625 226.859 99.625 225.641V225.395C99.625 224.035 99.8203 222.844 100.211 221.82C100.602 220.797 101.168 220.004 101.91 219.441C102.652 218.871 103.543 218.586 104.582 218.586C105.332 218.586 105.992 218.727 106.562 219.008C107.141 219.281 107.633 219.68 108.039 220.203V215.035L106.129 214.707V213.219H108.039H110.348V229.695L112.258 230.023V231.5H108.344L108.156 229.988C107.742 230.566 107.234 231.004 106.633 231.301C106.039 231.598 105.348 231.746 104.559 231.746ZM105.145 229.871C105.832 229.871 106.41 229.715 106.879 229.402C107.348 229.09 107.734 228.648 108.039 228.078V222.195C107.742 221.664 107.355 221.242 106.879 220.93C106.402 220.617 105.832 220.461 105.168 220.461C104.434 220.461 103.828 220.672 103.352 221.094C102.875 221.508 102.52 222.086 102.285 222.828C102.051 223.562 101.934 224.418 101.934 225.395V225.641C101.934 226.914 102.195 227.938 102.719 228.711C103.242 229.484 104.051 229.871 105.145 229.871ZM119.559 231.746C118.387 231.746 117.367 231.48 116.5 230.949C115.633 230.41 114.961 229.664 114.484 228.711C114.016 227.758 113.781 226.656 113.781 225.406V224.891C113.781 223.688 114.027 222.613 114.52 221.668C115.02 220.715 115.68 219.965 116.5 219.418C117.328 218.863 118.23 218.586 119.207 218.586C120.348 218.586 121.301 218.82 122.066 219.289C122.84 219.758 123.422 220.418 123.812 221.27C124.203 222.113 124.398 223.109 124.398 224.258V225.699H116.172L116.137 225.758C116.152 226.57 116.293 227.293 116.559 227.926C116.832 228.551 117.223 229.043 117.73 229.402C118.238 229.762 118.848 229.941 119.559 229.941C120.34 229.941 121.023 229.832 121.609 229.613C122.203 229.387 122.715 229.078 123.145 228.688L124.047 230.188C123.594 230.625 122.992 230.996 122.242 231.301C121.5 231.598 120.605 231.746 119.559 231.746ZM116.242 223.895H122.09V223.59C122.09 222.98 121.98 222.438 121.762 221.961C121.551 221.477 121.23 221.098 120.801 220.824C120.379 220.543 119.848 220.402 119.207 220.402C118.691 220.402 118.223 220.555 117.801 220.859C117.379 221.156 117.031 221.562 116.758 222.078C116.484 222.594 116.305 223.18 116.219 223.836L116.242 223.895ZM132.156 231.5V230.023L134.066 229.695V220.637L132.156 220.309V218.82H136.129L136.328 220.438L136.352 220.66C136.711 220.012 137.152 219.504 137.676 219.137C138.207 218.77 138.812 218.586 139.492 218.586C139.734 218.586 139.98 218.609 140.23 218.656C140.488 218.695 140.672 218.734 140.781 218.773L140.477 220.918L138.871 220.824C138.262 220.785 137.75 220.926 137.336 221.246C136.922 221.559 136.602 221.98 136.375 222.512V229.695L138.285 230.023V231.5H132.156ZM147.73 231.746C146.559 231.746 145.539 231.48 144.672 230.949C143.805 230.41 143.133 229.664 142.656 228.711C142.188 227.758 141.953 226.656 141.953 225.406V224.891C141.953 223.688 142.199 222.613 142.691 221.668C143.191 220.715 143.852 219.965 144.672 219.418C145.5 218.863 146.402 218.586 147.379 218.586C148.52 218.586 149.473 218.82 150.238 219.289C151.012 219.758 151.594 220.418 151.984 221.27C152.375 222.113 152.57 223.109 152.57 224.258V225.699H144.344L144.309 225.758C144.324 226.57 144.465 227.293 144.73 227.926C145.004 228.551 145.395 229.043 145.902 229.402C146.41 229.762 147.02 229.941 147.73 229.941C148.512 229.941 149.195 229.832 149.781 229.613C150.375 229.387 150.887 229.078 151.316 228.688L152.219 230.188C151.766 230.625 151.164 230.996 150.414 231.301C149.672 231.598 148.777 231.746 147.73 231.746ZM144.414 223.895H150.262V223.59C150.262 222.98 150.152 222.438 149.934 221.961C149.723 221.477 149.402 221.098 148.973 220.824C148.551 220.543 148.02 220.402 147.379 220.402C146.863 220.402 146.395 220.555 145.973 220.859C145.551 221.156 145.203 221.562 144.93 222.078C144.656 222.594 144.477 223.18 144.391 223.836L144.414 223.895ZM159.355 231.5L154.844 220.484L153.531 220.309V218.82H158.852V220.309L157.199 220.543L160.012 227.762L160.34 228.781H160.41L160.785 227.762L163.398 220.543L161.699 220.309V218.82H167.008V220.309L165.672 220.484L161.383 231.5H159.355ZM168.145 231.5V230.023L170.055 229.695V220.637L168.145 220.309V218.82H172.363V229.695L174.273 230.023V231.5H168.145ZM169.938 215.691V213.219H172.363V215.691H169.938ZM181.645 231.746C180.473 231.746 179.453 231.48 178.586 230.949C177.719 230.41 177.047 229.664 176.57 228.711C176.102 227.758 175.867 226.656 175.867 225.406V224.891C175.867 223.688 176.113 222.613 176.605 221.668C177.105 220.715 177.766 219.965 178.586 219.418C179.414 218.863 180.316 218.586 181.293 218.586C182.434 218.586 183.387 218.82 184.152 219.289C184.926 219.758 185.508 220.418 185.898 221.27C186.289 222.113 186.484 223.109 186.484 224.258V225.699H178.258L178.223 225.758C178.238 226.57 178.379 227.293 178.645 227.926C178.918 228.551 179.309 229.043 179.816 229.402C180.324 229.762 180.934 229.941 181.645 229.941C182.426 229.941 183.109 229.832 183.695 229.613C184.289 229.387 184.801 229.078 185.23 228.688L186.133 230.188C185.68 230.625 185.078 230.996 184.328 231.301C183.586 231.598 182.691 231.746 181.645 231.746ZM178.328 223.895H184.176V223.59C184.176 222.98 184.066 222.438 183.848 221.961C183.637 221.477 183.316 221.098 182.887 220.824C182.465 220.543 181.934 220.402 181.293 220.402C180.777 220.402 180.309 220.555 179.887 220.859C179.465 221.156 179.117 221.562 178.844 222.078C178.57 222.594 178.391 223.18 178.305 223.836L178.328 223.895ZM192.789 231.5L189.449 220.473L188.031 220.309V218.82H193.27V220.309L191.711 220.566L193.457 226.883L193.855 228.383H193.926L194.441 226.883L197.195 218.82H199.141L201.766 226.859L202.328 228.641H202.398L202.949 226.859L204.719 220.555L203.125 220.309V218.82H208.246V220.309L206.84 220.508L203.559 231.5H201.367L198.801 223.883L198.191 221.844L198.121 221.855L197.523 223.883L194.77 231.5H192.789ZM215.875 231.5V230.023L217.785 229.695V216.254L215.875 215.926V214.438H217.785H220.867L226.363 227.387H226.434L231.754 214.438H236.898V215.926L234.988 216.254V229.695L236.898 230.023V231.5H230.77V230.023L232.785 229.695V224.75V217.59L232.727 217.578L227.184 230.891H225.648L219.918 217.602L219.859 217.613L219.941 224.75V229.695L222.004 230.023V231.5H215.875ZM238.949 231.5V230.023L240.859 229.695V216.254L238.949 215.926V214.449H246.555C247.797 214.449 248.844 214.637 249.695 215.012C250.555 215.379 251.207 215.914 251.652 216.617C252.098 217.32 252.32 218.18 252.32 219.195C252.32 220.195 252.102 221.035 251.664 221.715C251.234 222.395 250.621 222.91 249.824 223.262C249.027 223.605 248.082 223.789 246.988 223.812L243.168 223.883V229.695L245.078 230.023V231.5H238.949ZM250.211 231.5L246.414 222.98L248.723 222.957L251.875 229.777L253.059 229.988V231.5H250.211ZM243.168 222.066H246.32C247.609 222.066 248.547 221.82 249.133 221.328C249.719 220.836 250.012 220.117 250.012 219.172C250.012 218.273 249.73 217.562 249.168 217.039C248.605 216.516 247.734 216.254 246.555 216.254H243.168V222.066ZM262.773 231.5L263.711 226.695H260.957V225.055H264.039L264.836 220.977H261.848V219.312H265.164L266.125 214.438H267.895L266.934 219.312H269.922L270.883 214.438H272.652L271.691 219.312H274.035V220.977H271.375L270.578 225.055H273.156V226.695H270.25L269.312 231.5H267.543L268.48 226.695H265.48L264.543 231.5H262.773ZM265.809 225.055H268.809L269.605 220.977H266.605L265.809 225.055ZM281.031 231.746C279.992 231.746 279.066 231.559 278.254 231.184C277.441 230.801 276.805 230.262 276.344 229.566C275.891 228.863 275.676 228.031 275.699 227.07L275.734 227H277.938C277.938 227.602 278.062 228.121 278.312 228.559C278.562 228.996 278.918 229.336 279.379 229.578C279.84 229.82 280.391 229.941 281.031 229.941C282.008 229.941 282.773 229.676 283.328 229.145C283.883 228.613 284.16 227.828 284.16 226.789C284.16 225.734 283.914 224.957 283.422 224.457C282.93 223.957 282.152 223.707 281.09 223.707H279.074V221.902H281.09C281.77 221.902 282.316 221.789 282.73 221.562C283.145 221.328 283.441 220.996 283.621 220.566C283.809 220.129 283.902 219.605 283.902 218.996C283.902 218.02 283.66 217.277 283.176 216.77C282.691 216.262 281.977 216.008 281.031 216.008C280.43 216.008 279.906 216.129 279.461 216.371C279.016 216.605 278.668 216.941 278.418 217.379C278.176 217.809 278.055 218.316 278.055 218.902H275.84L275.816 218.832C275.793 217.973 275.996 217.191 276.426 216.488C276.863 215.785 277.477 215.227 278.266 214.812C279.062 214.398 279.984 214.191 281.031 214.191C282.609 214.191 283.867 214.613 284.805 215.457C285.742 216.293 286.211 217.488 286.211 219.043C286.211 219.746 285.996 220.449 285.566 221.152C285.145 221.848 284.508 222.379 283.656 222.746C284.68 223.082 285.402 223.609 285.824 224.328C286.254 225.047 286.469 225.852 286.469 226.742C286.469 227.781 286.234 228.676 285.766 229.426C285.305 230.168 284.664 230.742 283.844 231.148C283.023 231.547 282.086 231.746 281.031 231.746ZM289.199 231.5V230.023L291.836 229.695V216.91L289.152 216.957V215.516L294.145 214.438V229.695L296.77 230.023V231.5H289.199ZM298.809 231.5V229.918L304.398 223.707C305.062 222.965 305.582 222.332 305.957 221.809C306.332 221.277 306.594 220.797 306.742 220.367C306.891 219.938 306.965 219.492 306.965 219.031C306.965 218.18 306.707 217.465 306.191 216.887C305.676 216.301 304.938 216.008 303.977 216.008C302.977 216.008 302.195 216.309 301.633 216.91C301.078 217.512 300.801 218.363 300.801 219.465H298.586L298.562 219.395C298.539 218.41 298.746 217.527 299.184 216.746C299.621 215.957 300.254 215.336 301.082 214.883C301.918 214.422 302.91 214.191 304.059 214.191C305.137 214.191 306.062 214.398 306.836 214.812C307.617 215.219 308.219 215.777 308.641 216.488C309.062 217.199 309.273 218.016 309.273 218.938C309.273 219.562 309.148 220.184 308.898 220.801C308.656 221.418 308.297 222.051 307.82 222.699C307.352 223.348 306.785 224.031 306.121 224.75L301.633 229.637L301.656 229.695H307.715L307.902 227.738H309.859V231.5H298.809ZM312.074 231.5V229.918L317.664 223.707C318.328 222.965 318.848 222.332 319.223 221.809C319.598 221.277 319.859 220.797 320.008 220.367C320.156 219.938 320.23 219.492 320.23 219.031C320.23 218.18 319.973 217.465 319.457 216.887C318.941 216.301 318.203 216.008 317.242 216.008C316.242 216.008 315.461 216.309 314.898 216.91C314.344 217.512 314.066 218.363 314.066 219.465H311.852L311.828 219.395C311.805 218.41 312.012 217.527 312.449 216.746C312.887 215.957 313.52 215.336 314.348 214.883C315.184 214.422 316.176 214.191 317.324 214.191C318.402 214.191 319.328 214.398 320.102 214.812C320.883 215.219 321.484 215.777 321.906 216.488C322.328 217.199 322.539 218.016 322.539 218.938C322.539 219.562 322.414 220.184 322.164 220.801C321.922 221.418 321.562 222.051 321.086 222.699C320.617 223.348 320.051 224.031 319.387 224.75L314.898 229.637L314.922 229.695H320.98L321.168 227.738H323.125V231.5H312.074ZM330.414 231.746C329.375 231.746 328.449 231.559 327.637 231.184C326.824 230.801 326.188 230.262 325.727 229.566C325.273 228.863 325.059 228.031 325.082 227.07L325.117 227H327.32C327.32 227.602 327.445 228.121 327.695 228.559C327.945 228.996 328.301 229.336 328.762 229.578C329.223 229.82 329.773 229.941 330.414 229.941C331.391 229.941 332.156 229.676 332.711 229.145C333.266 228.613 333.543 227.828 333.543 226.789C333.543 225.734 333.297 224.957 332.805 224.457C332.312 223.957 331.535 223.707 330.473 223.707H328.457V221.902H330.473C331.152 221.902 331.699 221.789 332.113 221.562C332.527 221.328 332.824 220.996 333.004 220.566C333.191 220.129 333.285 219.605 333.285 218.996C333.285 218.02 333.043 217.277 332.559 216.77C332.074 216.262 331.359 216.008 330.414 216.008C329.812 216.008 329.289 216.129 328.844 216.371C328.398 216.605 328.051 216.941 327.801 217.379C327.559 217.809 327.438 218.316 327.438 218.902H325.223L325.199 218.832C325.176 217.973 325.379 217.191 325.809 216.488C326.246 215.785 326.859 215.227 327.648 214.812C328.445 214.398 329.367 214.191 330.414 214.191C331.992 214.191 333.25 214.613 334.188 215.457C335.125 216.293 335.594 217.488 335.594 219.043C335.594 219.746 335.379 220.449 334.949 221.152C334.527 221.848 333.891 222.379 333.039 222.746C334.062 223.082 334.785 223.609 335.207 224.328C335.637 225.047 335.852 225.852 335.852 226.742C335.852 227.781 335.617 228.676 335.148 229.426C334.688 230.168 334.047 230.742 333.227 231.148C332.406 231.547 331.469 231.746 330.414 231.746Z" fill="#0B0A07"/>
<path d="M503.504 231.5V229.918L509.094 223.707C509.758 222.965 510.277 222.332 510.652 221.809C511.027 221.277 511.289 220.797 511.438 220.367C511.586 219.938 511.66 219.492 511.66 219.031C511.66 218.18 511.402 217.465 510.887 216.887C510.371 216.301 509.633 216.008 508.672 216.008C507.672 216.008 506.891 216.309 506.328 216.91C505.773 217.512 505.496 218.363 505.496 219.465H503.281L503.258 219.395C503.234 218.41 503.441 217.527 503.879 216.746C504.316 215.957 504.949 215.336 505.777 214.883C506.613 214.422 507.605 214.191 508.754 214.191C509.832 214.191 510.758 214.398 511.531 214.812C512.312 215.219 512.914 215.777 513.336 216.488C513.758 217.199 513.969 218.016 513.969 218.938C513.969 219.562 513.844 220.184 513.594 220.801C513.352 221.418 512.992 222.051 512.516 222.699C512.047 223.348 511.48 224.031 510.816 224.75L506.328 229.637L506.352 229.695H512.41L512.598 227.738H514.555V231.5H503.504Z" fill="#0B0A07"/>
<path d="M585.617 231.5V229.918L591.207 223.707C591.871 222.965 592.391 222.332 592.766 221.809C593.141 221.277 593.402 220.797 593.551 220.367C593.699 219.938 593.773 219.492 593.773 219.031C593.773 218.18 593.516 217.465 593 216.887C592.484 216.301 591.746 216.008 590.785 216.008C589.785 216.008 589.004 216.309 588.441 216.91C587.887 217.512 587.609 218.363 587.609 219.465H585.395L585.371 219.395C585.348 218.41 585.555 217.527 585.992 216.746C586.43 215.957 587.062 215.336 587.891 214.883C588.727 214.422 589.719 214.191 590.867 214.191C591.945 214.191 592.871 214.398 593.645 214.812C594.426 215.219 595.027 215.777 595.449 216.488C595.871 217.199 596.082 218.016 596.082 218.938C596.082 219.562 595.957 220.184 595.707 220.801C595.465 221.418 595.105 222.051 594.629 222.699C594.16 223.348 593.594 224.031 592.93 224.75L588.441 229.637L588.465 229.695H594.523L594.711 227.738H596.668V231.5H585.617ZM604.602 231.746C602.93 231.746 601.605 231.164 600.629 230C599.652 228.836 599.164 227.168 599.164 224.996V220.953C599.164 218.781 599.648 217.113 600.617 215.949C601.586 214.777 602.906 214.191 604.578 214.191C606.258 214.191 607.586 214.777 608.562 215.949C609.539 217.113 610.027 218.781 610.027 220.953V224.996C610.027 227.176 609.543 228.848 608.574 230.012C607.605 231.168 606.281 231.746 604.602 231.746ZM604.602 229.941C605.625 229.941 606.398 229.566 606.922 228.816C607.453 228.066 607.719 226.949 607.719 225.465V220.461C607.719 218.984 607.449 217.875 606.91 217.133C606.379 216.383 605.602 216.008 604.578 216.008C603.57 216.008 602.801 216.383 602.27 217.133C601.738 217.875 601.473 218.984 601.473 220.461V225.465C601.473 226.941 601.742 228.059 602.281 228.816C602.82 229.566 603.594 229.941 604.602 229.941ZM612.57 231.5V229.918L618.16 223.707C618.824 222.965 619.344 222.332 619.719 221.809C620.094 221.277 620.355 220.797 620.504 220.367C620.652 219.938 620.727 219.492 620.727 219.031C620.727 218.18 620.469 217.465 619.953 216.887C619.438 216.301 618.699 216.008 617.738 216.008C616.738 216.008 615.957 216.309 615.395 216.91C614.84 217.512 614.562 218.363 614.562 219.465H612.348L612.324 219.395C612.301 218.41 612.508 217.527 612.945 216.746C613.383 215.957 614.016 215.336 614.844 214.883C615.68 214.422 616.672 214.191 617.82 214.191C618.898 214.191 619.824 214.398 620.598 214.812C621.379 215.219 621.98 215.777 622.402 216.488C622.824 217.199 623.035 218.016 623.035 218.938C623.035 219.562 622.91 220.184 622.66 220.801C622.418 221.418 622.059 222.051 621.582 222.699C621.113 223.348 620.547 224.031 619.883 224.75L615.395 229.637L615.418 229.695H621.477L621.664 227.738H623.621V231.5H612.57ZM630.91 231.746C629.871 231.746 628.945 231.559 628.133 231.184C627.32 230.801 626.684 230.262 626.223 229.566C625.77 228.863 625.555 228.031 625.578 227.07L625.613 227H627.816C627.816 227.602 627.941 228.121 628.191 228.559C628.441 228.996 628.797 229.336 629.258 229.578C629.719 229.82 630.27 229.941 630.91 229.941C631.887 229.941 632.652 229.676 633.207 229.145C633.762 228.613 634.039 227.828 634.039 226.789C634.039 225.734 633.793 224.957 633.301 224.457C632.809 223.957 632.031 223.707 630.969 223.707H628.953V221.902H630.969C631.648 221.902 632.195 221.789 632.609 221.562C633.023 221.328 633.32 220.996 633.5 220.566C633.688 220.129 633.781 219.605 633.781 218.996C633.781 218.02 633.539 217.277 633.055 216.77C632.57 216.262 631.855 216.008 630.91 216.008C630.309 216.008 629.785 216.129 629.34 216.371C628.895 216.605 628.547 216.941 628.297 217.379C628.055 217.809 627.934 218.316 627.934 218.902H625.719L625.695 218.832C625.672 217.973 625.875 217.191 626.305 216.488C626.742 215.785 627.355 215.227 628.145 214.812C628.941 214.398 629.863 214.191 630.91 214.191C632.488 214.191 633.746 214.613 634.684 215.457C635.621 216.293 636.09 217.488 636.09 219.043C636.09 219.746 635.875 220.449 635.445 221.152C635.023 221.848 634.387 222.379 633.535 222.746C634.559 223.082 635.281 223.609 635.703 224.328C636.133 225.047 636.348 225.852 636.348 226.742C636.348 227.781 636.113 228.676 635.645 229.426C635.184 230.168 634.543 230.742 633.723 231.148C632.902 231.547 631.965 231.746 630.91 231.746ZM639.465 225.195V223.391H645.195V225.195H639.465ZM653.867 231.746C652.195 231.746 650.871 231.164 649.895 230C648.918 228.836 648.43 227.168 648.43 224.996V220.953C648.43 218.781 648.914 217.113 649.883 215.949C650.852 214.777 652.172 214.191 653.844 214.191C655.523 214.191 656.852 214.777 657.828 215.949C658.805 217.113 659.293 218.781 659.293 220.953V224.996C659.293 227.176 658.809 228.848 657.84 230.012C656.871 231.168 655.547 231.746 653.867 231.746ZM653.867 229.941C654.891 229.941 655.664 229.566 656.188 228.816C656.719 228.066 656.984 226.949 656.984 225.465V220.461C656.984 218.984 656.715 217.875 656.176 217.133C655.645 216.383 654.867 216.008 653.844 216.008C652.836 216.008 652.066 216.383 651.535 217.133C651.004 217.875 650.738 218.984 650.738 220.461V225.465C650.738 226.941 651.008 228.059 651.547 228.816C652.086 229.566 652.859 229.941 653.867 229.941ZM662.117 231.5V230.023L664.754 229.695V216.91L662.07 216.957V215.516L667.062 214.438V229.695L669.688 230.023V231.5H662.117ZM672.395 225.195V223.391H678.125V225.195H672.395ZM686.797 231.746C685.125 231.746 683.801 231.164 682.824 230C681.848 228.836 681.359 227.168 681.359 224.996V220.953C681.359 218.781 681.844 217.113 682.812 215.949C683.781 214.777 685.102 214.191 686.773 214.191C688.453 214.191 689.781 214.777 690.758 215.949C691.734 217.113 692.223 218.781 692.223 220.953V224.996C692.223 227.176 691.738 228.848 690.77 230.012C689.801 231.168 688.477 231.746 686.797 231.746ZM686.797 229.941C687.82 229.941 688.594 229.566 689.117 228.816C689.648 228.066 689.914 226.949 689.914 225.465V220.461C689.914 218.984 689.645 217.875 689.105 217.133C688.574 216.383 687.797 216.008 686.773 216.008C685.766 216.008 684.996 216.383 684.465 217.133C683.934 217.875 683.668 218.984 683.668 220.461V225.465C683.668 226.941 683.938 228.059 684.477 228.816C685.016 229.566 685.789 229.941 686.797 229.941ZM695.047 231.5V230.023L697.684 229.695V216.91L695 216.957V215.516L699.992 214.438V229.695L702.617 230.023V231.5H695.047Z" fill="#0B0A07"/>
<rect x="51.5" y="195.5" width="686" height="54" rx="15.5" stroke="#0B0A07" stroke-width="3"/>
<g filter="url(#filter1_d_740_1673)">
<rect x="50" y="301" width="689" height="78" rx="17" fill="#00B4D8" shape-rendering="crispEdges"/>
<path d="M72.64 350C72.464 350 72.328 349.952 72.232 349.856C72.136 349.744 72.088 349.608 72.088 349.448V333.776C72.088 333.6 72.136 333.464 72.232 333.368C72.328 333.256 72.464 333.2 72.64 333.2H82.552C82.728 333.2 82.864 333.256 82.96 333.368C83.056 333.464 83.104 333.6 83.104 333.776V334.688C83.104 334.864 83.056 335 82.96 335.096C82.864 335.192 82.728 335.24 82.552 335.24H74.392V340.496H82.024C82.2 340.496 82.336 340.552 82.432 340.664C82.528 340.76 82.576 340.896 82.576 341.072V341.96C82.576 342.12 82.528 342.256 82.432 342.368C82.336 342.464 82.2 342.512 82.024 342.512H74.392V347.96H82.744C82.92 347.96 83.056 348.008 83.152 348.104C83.248 348.2 83.296 348.336 83.296 348.512V349.448C83.296 349.608 83.248 349.744 83.152 349.856C83.056 349.952 82.92 350 82.744 350H72.64ZM86.8827 350C86.7227 350 86.5867 349.952 86.4747 349.856C86.3787 349.744 86.3307 349.608 86.3307 349.448V338.072C86.3307 337.912 86.3787 337.784 86.4747 337.688C86.5867 337.576 86.7227 337.52 86.8827 337.52H88.0107C88.1707 337.52 88.2987 337.576 88.3947 337.688C88.5067 337.784 88.5627 337.912 88.5627 338.072V339.128C88.9787 338.584 89.4987 338.144 90.1227 337.808C90.7627 337.456 91.5787 337.28 92.5707 337.28C93.6107 337.28 94.4907 337.512 95.2107 337.976C95.9467 338.424 96.4987 339.056 96.8667 339.872C97.2347 340.672 97.4187 341.608 97.4187 342.68V349.448C97.4187 349.608 97.3707 349.744 97.2747 349.856C97.1787 349.952 97.0507 350 96.8907 350H95.6907C95.5307 350 95.3947 349.952 95.2827 349.856C95.1867 349.744 95.1387 349.608 95.1387 349.448V342.8C95.1387 341.68 94.8667 340.808 94.3227 340.184C93.7787 339.544 92.9787 339.224 91.9227 339.224C90.9307 339.224 90.1307 339.544 89.5227 340.184C88.9307 340.808 88.6347 341.68 88.6347 342.8V349.448C88.6347 349.608 88.5787 349.744 88.4667 349.856C88.3707 349.952 88.2427 350 88.0827 350H86.8827ZM105.593 350C104.697 350 103.969 349.832 103.409 349.496C102.849 349.144 102.441 348.656 102.185 348.032C101.929 347.392 101.801 346.64 101.801 345.776V339.44H99.9293C99.7693 339.44 99.6333 339.392 99.5213 339.296C99.4253 339.184 99.3773 339.048 99.3773 338.888V338.072C99.3773 337.912 99.4253 337.784 99.5213 337.688C99.6333 337.576 99.7693 337.52 99.9293 337.52H101.801V333.512C101.801 333.352 101.849 333.224 101.945 333.128C102.057 333.016 102.193 332.96 102.353 332.96H103.481C103.641 332.96 103.769 333.016 103.865 333.128C103.977 333.224 104.033 333.352 104.033 333.512V337.52H107.009C107.169 337.52 107.297 337.576 107.393 337.688C107.505 337.784 107.561 337.912 107.561 338.072V338.888C107.561 339.048 107.505 339.184 107.393 339.296C107.297 339.392 107.169 339.44 107.009 339.44H104.033V345.608C104.033 346.36 104.161 346.952 104.417 347.384C104.673 347.816 105.129 348.032 105.785 348.032H107.249C107.409 348.032 107.537 348.088 107.633 348.2C107.745 348.296 107.801 348.424 107.801 348.584V349.448C107.801 349.608 107.745 349.744 107.633 349.856C107.537 349.952 107.409 350 107.249 350H105.593ZM115.064 350.24C113.416 350.24 112.104 349.736 111.128 348.728C110.152 347.704 109.616 346.312 109.52 344.552C109.504 344.344 109.496 344.08 109.496 343.76C109.496 343.424 109.504 343.152 109.52 342.944C109.584 341.808 109.848 340.816 110.312 339.968C110.776 339.104 111.408 338.44 112.208 337.976C113.024 337.512 113.976 337.28 115.064 337.28C116.28 337.28 117.296 337.536 118.112 338.048C118.944 338.56 119.576 339.288 120.008 340.232C120.44 341.176 120.656 342.28 120.656 343.544V343.952C120.656 344.128 120.6 344.264 120.488 344.36C120.392 344.456 120.264 344.504 120.104 344.504H111.8C111.8 344.52 111.8 344.552 111.8 344.6C111.8 344.648 111.8 344.688 111.8 344.72C111.832 345.376 111.976 345.992 112.232 346.568C112.488 347.128 112.856 347.584 113.336 347.936C113.816 348.288 114.392 348.464 115.064 348.464C115.64 348.464 116.12 348.376 116.504 348.2C116.888 348.024 117.2 347.832 117.44 347.624C117.68 347.4 117.84 347.232 117.92 347.12C118.064 346.912 118.176 346.792 118.256 346.76C118.336 346.712 118.464 346.688 118.64 346.688H119.792C119.952 346.688 120.08 346.736 120.176 346.832C120.288 346.912 120.336 347.032 120.32 347.192C120.304 347.432 120.176 347.728 119.936 348.08C119.696 348.416 119.352 348.752 118.904 349.088C118.456 349.424 117.912 349.704 117.272 349.928C116.632 350.136 115.896 350.24 115.064 350.24ZM111.8 342.848H118.376V342.776C118.376 342.056 118.24 341.416 117.968 340.856C117.712 340.296 117.336 339.856 116.84 339.536C116.344 339.2 115.752 339.032 115.064 339.032C114.376 339.032 113.784 339.2 113.288 339.536C112.808 339.856 112.44 340.296 112.184 340.856C111.928 341.416 111.8 342.056 111.8 342.776V342.848ZM124.078 350C123.918 350 123.782 349.952 123.67 349.856C123.574 349.744 123.526 349.608 123.526 349.448V338.096C123.526 337.936 123.574 337.8 123.67 337.688C123.782 337.576 123.918 337.52 124.078 337.52H125.182C125.342 337.52 125.478 337.576 125.59 337.688C125.702 337.8 125.758 337.936 125.758 338.096V339.152C126.078 338.608 126.518 338.2 127.078 337.928C127.638 337.656 128.31 337.52 129.094 337.52H130.054C130.214 337.52 130.342 337.576 130.438 337.688C130.534 337.784 130.582 337.912 130.582 338.072V339.056C130.582 339.216 130.534 339.344 130.438 339.44C130.342 339.536 130.214 339.584 130.054 339.584H128.614C127.75 339.584 127.07 339.84 126.574 340.352C126.078 340.848 125.83 341.528 125.83 342.392V349.448C125.83 349.608 125.774 349.744 125.662 349.856C125.55 349.952 125.414 350 125.254 350H124.078ZM142.32 350C141.424 350 140.696 349.832 140.136 349.496C139.576 349.144 139.168 348.656 138.912 348.032C138.656 347.392 138.528 346.64 138.528 345.776V339.44H136.656C136.496 339.44 136.36 339.392 136.248 339.296C136.152 339.184 136.104 339.048 136.104 338.888V338.072C136.104 337.912 136.152 337.784 136.248 337.688C136.36 337.576 136.496 337.52 136.656 337.52H138.528V333.512C138.528 333.352 138.576 333.224 138.672 333.128C138.784 333.016 138.92 332.96 139.08 332.96H140.208C140.368 332.96 140.496 333.016 140.592 333.128C140.704 333.224 140.76 333.352 140.76 333.512V337.52H143.736C143.896 337.52 144.024 337.576 144.12 337.688C144.232 337.784 144.288 337.912 144.288 338.072V338.888C144.288 339.048 144.232 339.184 144.12 339.296C144.024 339.392 143.896 339.44 143.736 339.44H140.76V345.608C140.76 346.36 140.888 346.952 141.144 347.384C141.4 347.816 141.856 348.032 142.512 348.032H143.976C144.136 348.032 144.264 348.088 144.36 348.2C144.472 348.296 144.528 348.424 144.528 348.584V349.448C144.528 349.608 144.472 349.744 144.36 349.856C144.264 349.952 144.136 350 143.976 350H142.32ZM150.303 350.24C149.503 350.24 148.775 350.08 148.119 349.76C147.463 349.44 146.935 349.008 146.535 348.464C146.135 347.92 145.935 347.304 145.935 346.616C145.935 345.512 146.383 344.632 147.279 343.976C148.175 343.32 149.343 342.888 150.783 342.68L154.359 342.176V341.48C154.359 340.712 154.135 340.112 153.687 339.68C153.255 339.248 152.543 339.032 151.551 339.032C150.831 339.032 150.247 339.176 149.799 339.464C149.367 339.752 149.063 340.12 148.887 340.568C148.791 340.808 148.623 340.928 148.383 340.928H147.303C147.127 340.928 146.991 340.88 146.895 340.784C146.815 340.672 146.775 340.544 146.775 340.4C146.775 340.16 146.863 339.864 147.039 339.512C147.231 339.16 147.519 338.816 147.903 338.48C148.287 338.144 148.775 337.864 149.367 337.64C149.975 337.4 150.711 337.28 151.575 337.28C152.535 337.28 153.343 337.408 153.999 337.664C154.655 337.904 155.167 338.232 155.535 338.648C155.919 339.064 156.191 339.536 156.351 340.064C156.527 340.592 156.615 341.128 156.615 341.672V349.448C156.615 349.608 156.559 349.744 156.447 349.856C156.351 349.952 156.223 350 156.063 350H154.959C154.783 350 154.647 349.952 154.551 349.856C154.455 349.744 154.407 349.608 154.407 349.448V348.416C154.199 348.704 153.919 348.992 153.567 349.28C153.215 349.552 152.775 349.784 152.247 349.976C151.719 350.152 151.071 350.24 150.303 350.24ZM150.807 348.44C151.463 348.44 152.063 348.304 152.607 348.032C153.151 347.744 153.575 347.304 153.879 346.712C154.199 346.12 154.359 345.376 154.359 344.48V343.808L151.575 344.216C150.439 344.376 149.583 344.648 149.007 345.032C148.431 345.4 148.143 345.872 148.143 346.448C148.143 346.896 148.271 347.272 148.527 347.576C148.799 347.864 149.135 348.08 149.535 348.224C149.951 348.368 150.375 348.44 150.807 348.44ZM164.385 350.24C163.489 350.24 162.721 350.128 162.081 349.904C161.441 349.68 160.921 349.408 160.521 349.088C160.121 348.768 159.817 348.448 159.609 348.128C159.417 347.808 159.313 347.552 159.297 347.36C159.281 347.184 159.337 347.048 159.465 346.952C159.593 346.856 159.721 346.808 159.849 346.808H160.905C161.001 346.808 161.073 346.824 161.121 346.856C161.185 346.872 161.265 346.936 161.361 347.048C161.569 347.272 161.801 347.496 162.057 347.72C162.313 347.944 162.625 348.128 162.993 348.272C163.377 348.416 163.849 348.488 164.409 348.488C165.225 348.488 165.897 348.336 166.425 348.032C166.953 347.712 167.217 347.248 167.217 346.64C167.217 346.24 167.105 345.92 166.881 345.68C166.673 345.44 166.289 345.224 165.729 345.032C165.185 344.84 164.433 344.64 163.473 344.432C162.513 344.208 161.753 343.936 161.193 343.616C160.633 343.28 160.233 342.888 159.993 342.44C159.753 341.976 159.633 341.456 159.633 340.88C159.633 340.288 159.809 339.72 160.161 339.176C160.513 338.616 161.025 338.16 161.697 337.808C162.385 337.456 163.241 337.28 164.265 337.28C165.097 337.28 165.809 337.384 166.401 337.592C166.993 337.8 167.481 338.064 167.865 338.384C168.249 338.688 168.537 338.992 168.729 339.296C168.921 339.6 169.025 339.856 169.041 340.064C169.057 340.224 169.009 340.36 168.897 340.472C168.785 340.568 168.657 340.616 168.513 340.616H167.505C167.393 340.616 167.297 340.592 167.217 340.544C167.153 340.496 167.089 340.44 167.025 340.376C166.865 340.168 166.673 339.96 166.449 339.752C166.241 339.544 165.961 339.376 165.609 339.248C165.273 339.104 164.825 339.032 164.265 339.032C163.465 339.032 162.865 339.2 162.465 339.536C162.065 339.872 161.865 340.296 161.865 340.808C161.865 341.112 161.953 341.384 162.129 341.624C162.305 341.864 162.641 342.08 163.137 342.272C163.633 342.464 164.369 342.672 165.345 342.896C166.401 343.104 167.233 343.384 167.841 343.736C168.449 344.088 168.881 344.496 169.137 344.96C169.393 345.424 169.521 345.96 169.521 346.568C169.521 347.24 169.321 347.856 168.921 348.416C168.537 348.976 167.961 349.424 167.193 349.76C166.441 350.08 165.505 350.24 164.385 350.24ZM172.875 350C172.715 350 172.579 349.952 172.467 349.856C172.371 349.744 172.323 349.608 172.323 349.448V333.512C172.323 333.352 172.371 333.224 172.467 333.128C172.579 333.016 172.715 332.96 172.875 332.96H174.003C174.163 332.96 174.291 333.016 174.387 333.128C174.499 333.224 174.555 333.352 174.555 333.512V341.864L179.283 337.928C179.475 337.768 179.619 337.664 179.715 337.616C179.827 337.552 180.003 337.52 180.243 337.52H181.515C181.659 337.52 181.779 337.568 181.875 337.664C181.971 337.76 182.019 337.88 182.019 338.024C182.019 338.088 181.995 338.16 181.947 338.24C181.915 338.32 181.843 338.4 181.731 338.48L176.187 343.088L182.331 349.064C182.523 349.224 182.619 349.368 182.619 349.496C182.619 349.64 182.571 349.76 182.475 349.856C182.379 349.952 182.259 350 182.115 350H180.867C180.627 350 180.451 349.976 180.339 349.928C180.227 349.864 180.083 349.752 179.907 349.592L174.555 344.48V349.448C174.555 349.608 174.499 349.744 174.387 349.856C174.291 349.952 174.163 350 174.003 350H172.875ZM194.679 350C193.783 350 193.055 349.832 192.495 349.496C191.935 349.144 191.527 348.656 191.271 348.032C191.015 347.392 190.887 346.64 190.887 345.776V339.44H189.015C188.855 339.44 188.719 339.392 188.607 339.296C188.511 339.184 188.463 339.048 188.463 338.888V338.072C188.463 337.912 188.511 337.784 188.607 337.688C188.719 337.576 188.855 337.52 189.015 337.52H190.887V333.512C190.887 333.352 190.935 333.224 191.031 333.128C191.143 333.016 191.279 332.96 191.439 332.96H192.567C192.727 332.96 192.855 333.016 192.951 333.128C193.063 333.224 193.119 333.352 193.119 333.512V337.52H196.095C196.255 337.52 196.383 337.576 196.479 337.688C196.591 337.784 196.647 337.912 196.647 338.072V338.888C196.647 339.048 196.591 339.184 196.479 339.296C196.383 339.392 196.255 339.44 196.095 339.44H193.119V345.608C193.119 346.36 193.247 346.952 193.503 347.384C193.759 347.816 194.215 348.032 194.871 348.032H196.335C196.495 348.032 196.623 348.088 196.719 348.2C196.831 348.296 196.887 348.424 196.887 348.584V349.448C196.887 349.608 196.831 349.744 196.719 349.856C196.623 349.952 196.495 350 196.335 350H194.679ZM199.734 350C199.574 350 199.438 349.952 199.326 349.856C199.23 349.744 199.182 349.608 199.182 349.448V338.072C199.182 337.912 199.23 337.784 199.326 337.688C199.438 337.576 199.574 337.52 199.734 337.52H200.886C201.046 337.52 201.174 337.576 201.27 337.688C201.366 337.784 201.414 337.912 201.414 338.072V349.448C201.414 349.608 201.366 349.744 201.27 349.856C201.174 349.952 201.046 350 200.886 350H199.734ZM199.542 335.192C199.382 335.192 199.246 335.144 199.134 335.048C199.038 334.936 198.99 334.8 198.99 334.64V333.344C198.99 333.184 199.038 333.056 199.134 332.96C199.246 332.848 199.382 332.792 199.542 332.792H201.054C201.214 332.792 201.342 332.848 201.438 332.96C201.55 333.056 201.606 333.184 201.606 333.344V334.64C201.606 334.8 201.55 334.936 201.438 335.048C201.342 335.144 201.214 335.192 201.054 335.192H199.542ZM209.867 350C208.971 350 208.243 349.832 207.683 349.496C207.123 349.144 206.715 348.656 206.459 348.032C206.203 347.392 206.075 346.64 206.075 345.776V339.44H204.203C204.043 339.44 203.907 339.392 203.795 339.296C203.699 339.184 203.651 339.048 203.651 338.888V338.072C203.651 337.912 203.699 337.784 203.795 337.688C203.907 337.576 204.043 337.52 204.203 337.52H206.075V333.512C206.075 333.352 206.123 333.224 206.219 333.128C206.331 333.016 206.467 332.96 206.627 332.96H207.755C207.915 332.96 208.043 333.016 208.139 333.128C208.251 333.224 208.307 333.352 208.307 333.512V337.52H211.283C211.443 337.52 211.571 337.576 211.667 337.688C211.779 337.784 211.835 337.912 211.835 338.072V338.888C211.835 339.048 211.779 339.184 211.667 339.296C211.571 339.392 211.443 339.44 211.283 339.44H208.307V345.608C208.307 346.36 208.435 346.952 208.691 347.384C208.947 347.816 209.403 348.032 210.059 348.032H211.523C211.683 348.032 211.811 348.088 211.907 348.2C212.019 348.296 212.075 348.424 212.075 348.584V349.448C212.075 349.608 212.019 349.744 211.907 349.856C211.811 349.952 211.683 350 211.523 350H209.867ZM214.946 350C214.786 350 214.65 349.952 214.538 349.856C214.442 349.744 214.394 349.608 214.394 349.448V333.512C214.394 333.352 214.442 333.224 214.538 333.128C214.65 333.016 214.786 332.96 214.946 332.96H216.074C216.25 332.96 216.386 333.016 216.482 333.128C216.578 333.224 216.626 333.352 216.626 333.512V349.448C216.626 349.608 216.578 349.744 216.482 349.856C216.386 349.952 216.25 350 216.074 350H214.946ZM225.174 350.24C223.526 350.24 222.214 349.736 221.238 348.728C220.262 347.704 219.726 346.312 219.63 344.552C219.614 344.344 219.606 344.08 219.606 343.76C219.606 343.424 219.614 343.152 219.63 342.944C219.694 341.808 219.958 340.816 220.422 339.968C220.886 339.104 221.518 338.44 222.318 337.976C223.134 337.512 224.086 337.28 225.174 337.28C226.39 337.28 227.406 337.536 228.222 338.048C229.054 338.56 229.686 339.288 230.118 340.232C230.55 341.176 230.766 342.28 230.766 343.544V343.952C230.766 344.128 230.71 344.264 230.598 344.36C230.502 344.456 230.374 344.504 230.214 344.504H221.91C221.91 344.52 221.91 344.552 221.91 344.6C221.91 344.648 221.91 344.688 221.91 344.72C221.942 345.376 222.086 345.992 222.342 346.568C222.598 347.128 222.966 347.584 223.446 347.936C223.926 348.288 224.502 348.464 225.174 348.464C225.75 348.464 226.23 348.376 226.614 348.2C226.998 348.024 227.31 347.832 227.55 347.624C227.79 347.4 227.95 347.232 228.03 347.12C228.174 346.912 228.286 346.792 228.366 346.76C228.446 346.712 228.574 346.688 228.75 346.688H229.902C230.062 346.688 230.19 346.736 230.286 346.832C230.398 346.912 230.446 347.032 230.43 347.192C230.414 347.432 230.286 347.728 230.046 348.08C229.806 348.416 229.462 348.752 229.014 349.088C228.566 349.424 228.022 349.704 227.382 349.928C226.742 350.136 226.006 350.24 225.174 350.24ZM221.91 342.848H228.486V342.776C228.486 342.056 228.35 341.416 228.078 340.856C227.822 340.296 227.446 339.856 226.95 339.536C226.454 339.2 225.862 339.032 225.174 339.032C224.486 339.032 223.894 339.2 223.398 339.536C222.918 339.856 222.55 340.296 222.294 340.856C222.038 341.416 221.91 342.056 221.91 342.776V342.848Z" fill="#0B0A07"/>
<path d="M459 354H70V358H459V354Z" fill="#0B0A07" mask="url(#path-18-inside-1_740_1673)"/>
<path d="M510.491 350C510.331 350 510.195 349.952 510.083 349.856C509.987 349.744 509.939 349.608 509.939 349.448V336.008L505.955 339.08C505.827 339.176 505.691 339.216 505.547 339.2C505.403 339.184 505.283 339.112 505.187 338.984L504.563 338.192C504.467 338.048 504.427 337.904 504.443 337.76C504.475 337.616 504.555 337.496 504.683 337.4L509.915 333.368C510.027 333.288 510.131 333.24 510.227 333.224C510.323 333.208 510.427 333.2 510.539 333.2H511.763C511.923 333.2 512.051 333.256 512.147 333.368C512.243 333.464 512.291 333.592 512.291 333.752V349.448C512.291 349.608 512.243 349.744 512.147 349.856C512.051 349.952 511.923 350 511.763 350H510.491Z" fill="#0B0A07"/>
<path d="M539 354H479V358H539V354Z" fill="#0B0A07" mask="url(#path-21-inside-2_740_1673)"/>
<path d="M579.693 350C579.533 350 579.397 349.952 579.285 349.856C579.189 349.744 579.141 349.608 579.141 349.448V348.68C579.141 348.536 579.181 348.376 579.261 348.2C579.341 348.024 579.501 347.832 579.741 347.624L584.829 342.536C585.645 341.848 586.285 341.264 586.749 340.784C587.229 340.288 587.565 339.816 587.757 339.368C587.965 338.92 588.069 338.456 588.069 337.976C588.069 337.064 587.813 336.344 587.301 335.816C586.789 335.272 586.029 335 585.021 335C584.381 335 583.829 335.136 583.365 335.408C582.901 335.664 582.533 336.024 582.261 336.488C582.005 336.936 581.837 337.448 581.757 338.024C581.725 338.232 581.637 338.376 581.493 338.456C581.365 338.536 581.245 338.576 581.133 338.576H579.885C579.741 338.576 579.621 338.536 579.525 338.456C579.429 338.36 579.381 338.248 579.381 338.12C579.397 337.512 579.525 336.904 579.765 336.296C580.005 335.672 580.357 335.112 580.821 334.616C581.301 334.12 581.885 333.72 582.573 333.416C583.277 333.096 584.093 332.936 585.021 332.936C586.285 332.936 587.317 333.168 588.117 333.632C588.933 334.08 589.533 334.68 589.917 335.432C590.301 336.184 590.493 337.008 590.493 337.904C590.493 338.608 590.373 339.256 590.133 339.848C589.893 340.424 589.541 340.992 589.077 341.552C588.629 342.096 588.069 342.656 587.397 343.232L582.789 347.912H590.277C590.453 347.912 590.589 347.96 590.685 348.056C590.797 348.152 590.853 348.288 590.853 348.464V349.448C590.853 349.608 590.797 349.744 590.685 349.856C590.589 349.952 590.453 350 590.277 350H579.693ZM599.659 350.24C598.555 350.24 597.619 350.072 596.851 349.736C596.099 349.384 595.483 348.904 595.003 348.296C594.523 347.688 594.171 346.992 593.947 346.208C593.739 345.424 593.619 344.592 593.587 343.712C593.571 343.28 593.555 342.824 593.539 342.344C593.539 341.864 593.539 341.384 593.539 340.904C593.555 340.408 593.571 339.936 593.587 339.488C593.603 338.608 593.723 337.776 593.947 336.992C594.187 336.192 594.539 335.496 595.003 334.904C595.483 334.296 596.107 333.824 596.875 333.488C597.643 333.136 598.571 332.96 599.659 332.96C600.763 332.96 601.691 333.136 602.443 333.488C603.211 333.824 603.835 334.296 604.315 334.904C604.795 335.496 605.147 336.192 605.371 336.992C605.611 337.776 605.739 338.608 605.755 339.488C605.771 339.936 605.779 340.408 605.779 340.904C605.795 341.384 605.795 341.864 605.779 342.344C605.779 342.824 605.771 343.28 605.755 343.712C605.739 344.592 605.611 345.424 605.371 346.208C605.147 346.992 604.795 347.688 604.315 348.296C603.851 348.904 603.235 349.384 602.467 349.736C601.715 350.072 600.779 350.24 599.659 350.24ZM599.659 348.2C600.907 348.2 601.827 347.792 602.419 346.976C603.027 346.144 603.339 345.016 603.355 343.592C603.387 343.128 603.403 342.68 603.403 342.248C603.403 341.8 603.403 341.36 603.403 340.928C603.403 340.48 603.387 340.04 603.355 339.608C603.339 338.216 603.027 337.104 602.419 336.272C601.827 335.424 600.907 335 599.659 335C598.427 335 597.507 335.424 596.899 336.272C596.307 337.104 595.995 338.216 595.963 339.608C595.963 340.04 595.955 340.48 595.939 340.928C595.939 341.36 595.939 341.8 595.939 342.248C595.955 342.68 595.963 343.128 595.963 343.592C595.995 345.016 596.315 346.144 596.923 346.976C597.531 347.792 598.443 348.2 599.659 348.2ZM609.013 350C608.853 350 608.717 349.952 608.605 349.856C608.509 349.744 608.461 349.608 608.461 349.448V348.68C608.461 348.536 608.501 348.376 608.581 348.2C608.661 348.024 608.821 347.832 609.061 347.624L614.149 342.536C614.965 341.848 615.605 341.264 616.069 340.784C616.549 340.288 616.885 339.816 617.077 339.368C617.285 338.92 617.389 338.456 617.389 337.976C617.389 337.064 617.133 336.344 616.621 335.816C616.109 335.272 615.349 335 614.341 335C613.701 335 613.149 335.136 612.685 335.408C612.221 335.664 611.853 336.024 611.581 336.488C611.325 336.936 611.157 337.448 611.077 338.024C611.045 338.232 610.957 338.376 610.813 338.456C610.685 338.536 610.565 338.576 610.453 338.576H609.205C609.061 338.576 608.941 338.536 608.845 338.456C608.749 338.36 608.701 338.248 608.701 338.12C608.717 337.512 608.845 336.904 609.085 336.296C609.325 335.672 609.677 335.112 610.141 334.616C610.621 334.12 611.205 333.72 611.893 333.416C612.597 333.096 613.413 332.936 614.341 332.936C615.605 332.936 616.637 333.168 617.437 333.632C618.253 334.08 618.853 334.68 619.237 335.432C619.621 336.184 619.813 337.008 619.813 337.904C619.813 338.608 619.693 339.256 619.453 339.848C619.213 340.424 618.861 340.992 618.397 341.552C617.949 342.096 617.389 342.656 616.717 343.232L612.109 347.912H619.597C619.773 347.912 619.909 347.96 620.005 348.056C620.117 348.152 620.173 348.288 620.173 348.464V349.448C620.173 349.608 620.117 349.744 620.005 349.856C619.909 349.952 619.773 350 619.597 350H609.013ZM628.523 350.24C627.515 350.24 626.635 350.12 625.883 349.88C625.131 349.624 624.499 349.288 623.987 348.872C623.475 348.456 623.083 348 622.811 347.504C622.555 347.008 622.419 346.496 622.403 345.968C622.403 345.824 622.451 345.712 622.547 345.632C622.643 345.552 622.763 345.512 622.907 345.512H624.083C624.227 345.512 624.355 345.544 624.467 345.608C624.579 345.672 624.675 345.808 624.755 346.016C624.915 346.592 625.187 347.04 625.571 347.36C625.971 347.68 626.427 347.904 626.939 348.032C627.467 348.144 627.995 348.2 628.523 348.2C629.627 348.2 630.523 347.936 631.211 347.408C631.899 346.88 632.243 346.104 632.243 345.08C632.243 344.04 631.931 343.296 631.307 342.848C630.683 342.4 629.819 342.176 628.715 342.176H626.435C626.275 342.176 626.139 342.128 626.027 342.032C625.931 341.936 625.883 341.8 625.883 341.624V340.976C625.883 340.832 625.907 340.712 625.955 340.616C626.019 340.504 626.083 340.408 626.147 340.328L630.803 335.24H623.723C623.563 335.24 623.427 335.192 623.315 335.096C623.219 335 623.171 334.864 623.171 334.688V333.776C623.171 333.6 623.219 333.464 623.315 333.368C623.427 333.256 623.563 333.2 623.723 333.2H633.299C633.475 333.2 633.611 333.256 633.707 333.368C633.819 333.464 633.875 333.6 633.875 333.776V334.64C633.875 334.752 633.843 334.856 633.779 334.952C633.731 335.032 633.675 335.112 633.611 335.192L628.979 340.352L629.363 340.376C630.419 340.408 631.339 340.6 632.123 340.952C632.923 341.304 633.539 341.832 633.971 342.536C634.419 343.224 634.643 344.096 634.643 345.152C634.643 346.224 634.379 347.144 633.851 347.912C633.323 348.664 632.595 349.24 631.667 349.64C630.739 350.04 629.691 350.24 628.523 350.24ZM637.993 343.808C637.833 343.808 637.697 343.76 637.585 343.664C637.489 343.552 637.441 343.416 637.441 343.256V342.344C637.441 342.184 637.489 342.056 637.585 341.96C637.697 341.848 637.833 341.792 637.993 341.792H645.193C645.353 341.792 645.481 341.848 645.577 341.96C645.689 342.056 645.745 342.184 645.745 342.344V343.256C645.745 343.416 645.689 343.552 645.577 343.664C645.481 343.76 645.353 343.808 645.193 343.808H637.993ZM655.018 350.24C653.914 350.24 652.978 350.072 652.21 349.736C651.458 349.384 650.842 348.904 650.362 348.296C649.882 347.688 649.53 346.992 649.306 346.208C649.098 345.424 648.978 344.592 648.946 343.712C648.93 343.28 648.914 342.824 648.898 342.344C648.898 341.864 648.898 341.384 648.898 340.904C648.914 340.408 648.93 339.936 648.946 339.488C648.962 338.608 649.082 337.776 649.306 336.992C649.546 336.192 649.898 335.496 650.362 334.904C650.842 334.296 651.466 333.824 652.234 333.488C653.002 333.136 653.93 332.96 655.018 332.96C656.122 332.96 657.05 333.136 657.802 333.488C658.57 333.824 659.194 334.296 659.674 334.904C660.154 335.496 660.506 336.192 660.73 336.992C660.97 337.776 661.098 338.608 661.114 339.488C661.13 339.936 661.138 340.408 661.138 340.904C661.154 341.384 661.154 341.864 661.138 342.344C661.138 342.824 661.13 343.28 661.114 343.712C661.098 344.592 660.97 345.424 660.73 346.208C660.506 346.992 660.154 347.688 659.674 348.296C659.21 348.904 658.594 349.384 657.826 349.736C657.074 350.072 656.138 350.24 655.018 350.24ZM655.018 348.2C656.266 348.2 657.186 347.792 657.778 346.976C658.386 346.144 658.698 345.016 658.714 343.592C658.746 343.128 658.762 342.68 658.762 342.248C658.762 341.8 658.762 341.36 658.762 340.928C658.762 340.48 658.746 340.04 658.714 339.608C658.698 338.216 658.386 337.104 657.778 336.272C657.186 335.424 656.266 335 655.018 335C653.786 335 652.866 335.424 652.258 336.272C651.666 337.104 651.354 338.216 651.322 339.608C651.322 340.04 651.314 340.48 651.298 340.928C651.298 341.36 651.298 341.8 651.298 342.248C651.314 342.68 651.322 343.128 651.322 343.592C651.354 345.016 651.674 346.144 652.282 346.976C652.89 347.792 653.802 348.2 655.018 348.2ZM669.269 350C669.109 350 668.973 349.952 668.861 349.856C668.765 349.744 668.717 349.608 668.717 349.448V336.008L664.733 339.08C664.605 339.176 664.469 339.216 664.325 339.2C664.181 339.184 664.061 339.112 663.965 338.984L663.341 338.192C663.245 338.048 663.205 337.904 663.221 337.76C663.253 337.616 663.333 337.496 663.461 337.4L668.693 333.368C668.805 333.288 668.909 333.24 669.005 333.224C669.101 333.208 669.205 333.2 669.317 333.2H670.541C670.701 333.2 670.829 333.256 670.925 333.368C671.021 333.464 671.069 333.592 671.069 333.752V349.448C671.069 349.608 671.021 349.744 670.925 349.856C670.829 349.952 670.701 350 670.541 350H669.269ZM675.118 343.808C674.958 343.808 674.822 343.76 674.71 343.664C674.614 343.552 674.566 343.416 674.566 343.256V342.344C674.566 342.184 674.614 342.056 674.71 341.96C674.822 341.848 674.958 341.792 675.118 341.792H682.318C682.478 341.792 682.606 341.848 682.702 341.96C682.814 342.056 682.87 342.184 682.87 342.344V343.256C682.87 343.416 682.814 343.552 682.702 343.664C682.606 343.76 682.478 343.808 682.318 343.808H675.118ZM692.143 350.24C691.039 350.24 690.103 350.072 689.335 349.736C688.583 349.384 687.967 348.904 687.487 348.296C687.007 347.688 686.655 346.992 686.431 346.208C686.223 345.424 686.103 344.592 686.071 343.712C686.055 343.28 686.039 342.824 686.023 342.344C686.023 341.864 686.023 341.384 686.023 340.904C686.039 340.408 686.055 339.936 686.071 339.488C686.087 338.608 686.207 337.776 686.431 336.992C686.671 336.192 687.023 335.496 687.487 334.904C687.967 334.296 688.591 333.824 689.359 333.488C690.127 333.136 691.055 332.96 692.143 332.96C693.247 332.96 694.175 333.136 694.927 333.488C695.695 333.824 696.319 334.296 696.799 334.904C697.279 335.496 697.631 336.192 697.855 336.992C698.095 337.776 698.223 338.608 698.239 339.488C698.255 339.936 698.263 340.408 698.263 340.904C698.279 341.384 698.279 341.864 698.263 342.344C698.263 342.824 698.255 343.28 698.239 343.712C698.223 344.592 698.095 345.424 697.855 346.208C697.631 346.992 697.279 347.688 696.799 348.296C696.335 348.904 695.719 349.384 694.951 349.736C694.199 350.072 693.263 350.24 692.143 350.24ZM692.143 348.2C693.391 348.2 694.311 347.792 694.903 346.976C695.511 346.144 695.823 345.016 695.839 343.592C695.871 343.128 695.887 342.68 695.887 342.248C695.887 341.8 695.887 341.36 695.887 340.928C695.887 340.48 695.871 340.04 695.839 339.608C695.823 338.216 695.511 337.104 694.903 336.272C694.311 335.424 693.391 335 692.143 335C690.911 335 689.991 335.424 689.383 336.272C688.791 337.104 688.479 338.216 688.447 339.608C688.447 340.04 688.439 340.48 688.423 340.928C688.423 341.36 688.423 341.8 688.423 342.248C688.439 342.68 688.447 343.128 688.447 343.592C688.479 345.016 688.799 346.144 689.407 346.976C690.015 347.792 690.927 348.2 692.143 348.2ZM706.394 350C706.234 350 706.098 349.952 705.986 349.856C705.89 349.744 705.842 349.608 705.842 349.448V336.008L701.858 339.08C701.73 339.176 701.594 339.216 701.45 339.2C701.306 339.184 701.186 339.112 701.09 338.984L700.466 338.192C700.37 338.048 700.33 337.904 700.346 337.76C700.378 337.616 700.458 337.496 700.586 337.4L705.818 333.368C705.93 333.288 706.034 333.24 706.13 333.224C706.226 333.208 706.33 333.2 706.442 333.2H707.666C707.826 333.2 707.954 333.256 708.05 333.368C708.146 333.464 708.194 333.592 708.194 333.752V349.448C708.194 349.608 708.146 349.744 708.05 349.856C707.954 349.952 707.826 350 707.666 350H706.394Z" fill="#0B0A07"/>
<path d="M719 354H569V358H719V354Z" fill="#0B0A07" mask="url(#path-24-inside-3_740_1673)"/>
<rect x="51.5" y="302.5" width="686" height="75" rx="15.5" stroke="#0B0A07" stroke-width="3" shape-rendering="crispEdges"/>
</g>
<rect x="1.5" y="1.5" width="786" height="426" rx="15.5" stroke="#0B0A07" stroke-width="3" shape-rendering="crispEdges"/>
</g>
<defs>
<filter id="filter0_d_740_1673" x="0" y="0" width="793" height="433" filterUnits="userSpaceOnUse" color-interpolation-filters="sRGB">
<feFlood flood-opacity="0" result="BackgroundImageFix"/>
<feColorMatrix in="SourceAlpha" type="matrix" values="0 0 0 0 0 0 0 0 0 0 0 0 0 0 0 0 0 0 127 0" result="hardAlpha"/>
<feOffset dx="4" dy="4"/>
<feComposite in2="hardAlpha" operator="out"/>
<feColorMatrix type="matrix" values="0 0 0 0 0.0431373 0 0 0 0 0.0392157 0 0 0 0 0.027451 0 0 0 1 0"/>
<feBlend mode="normal" in2="BackgroundImageFix" result="effect1_dropShadow_740_1673"/>
<feBlend mode="normal" in="SourceGraphic" in2="effect1_dropShadow_740_1673" result="shape"/>
</filter>
<filter id="filter1_d_740_1673" x="50" y="301" width="689" height="81" filterUnits="userSpaceOnUse" color-interpolation-filters="sRGB">
<feFlood flood-opacity="0" result="BackgroundImageFix"/>
<feColorMatrix in="SourceAlpha" type="matrix" values="0 0 0 0 0 0 0 0 0 0 0 0 0 0 0 0 0 0 127 0" result="hardAlpha"/>
<feOffset dy="3"/>
<feComposite in2="hardAlpha" operator="out"/>
<feColorMatrix type="matrix" values="0 0 0 0 0 0 0 0 0 0 0 0 0 0 0 0 0 0 1 0"/>
<feBlend mode="normal" in2="BackgroundImageFix" result="effect1_dropShadow_740_1673"/>
<feBlend mode="normal" in="SourceGraphic" in2="effect1_dropShadow_740_1673" result="shape"/>
</filter>
</defs>
</svg>
