<svg width="66" height="42" viewBox="0 0 66 42" fill="none" xmlns="http://www.w3.org/2000/svg">
<g clip-path="url(#clip0_514_778)">
<path d="M44.25 29.3799L46.908 32.0759L52.499 33.3209L51.208 37.3789L51.958 40.5969L54.166 39.8829L56.791 34.9039L58.49 29.5039C54.776 26.8669 53.587 23.3619 52.106 19.6949L44.25 29.3799Z" fill="#E27022"/>
<path d="M27.9499 28.7899L26.1309 31.6319L24.5479 39.1659L22.9459 40.9199L20.0059 39.8319L19.6729 34.5819C19.6729 34.5819 20.1729 30.0709 20.6729 28.0349C21.1729 25.9989 26.0059 25.6689 26.0059 25.6689L27.9499 28.7899Z" fill="#E27022"/>
<path d="M48.75 15.51L48.466 15.143L48.75 15.51ZM48.4701 15.14L47.8 14.276L48.4701 15.14Z" fill="#F4AA41"/>
<path d="M64.14 1.53004L61.624 1.21704L57.334 2.77404C56.9156 5.44936 56.5126 8.12707 56.125 10.807L52.059 14.63L45.468 15.533L39.808 13.099L24.278 11.953L17.836 13.191L11.512 10.437L7.25204 7.60804L3.62904 8.34804L5.37903 11.764L2.06104 16.864L3.00204 21.101C3.00204 21.101 7.63204 21.111 9.91203 21.651L13.308 20.454C12.761 22.805 13.994 25.265 14.856 27.394C11.989 28.804 10.476 30.004 9.63904 32.034C9.25504 32.965 9.01404 35.299 8.84904 36.681L11.648 38.743C11.648 38.743 15.586 38.431 13.992 34.166L16.791 31.433C18.293 30.639 21.241 29.258 21.241 29.258L35.741 29.986L38.484 33.175L37.154 40.617L39.711 40.347L44.596 33.847V30.357C44.596 30.357 49.536 24.824 50.616 21.47L50.629 21.487C50.629 21.487 56.435 18.483 58.659 13.962C62.256 8.90804 57.981 3.98704 63.097 5.65004C64.386 6.06904 65.98 3.46604 64.417 1.84004L64.134 1.52904L64.14 1.53004Z" fill="#F4AA41"/>
<path d="M9.4599 20.74C7.1269 21.74 4.5429 21.573 4.5429 21.573C2.8659 21.719 1.4279 17.563 2.0579 16.84L5.3759 11.74L3.6259 8.32304C3.6259 8.32304 8.6339 6.90804 11.5089 10.413C11.8529 10.833 12.3029 11.156 12.7879 11.4L12.8789 11.446C15.4719 12.735 18.4249 13.017 21.2639 12.444C28.4859 10.986 35.3339 11.074 42.9639 14.656C50.5889 18.239 57.4939 12.406 56.6039 7.15604C55.8109 2.50904 60.1659 -0.426959 63.3539 2.15604M13.0499 33.82C13.6499 31.614 21.5409 30.172 21.5409 30.172C21.5409 30.172 24.7689 28.971 22.9669 25.668" stroke="#00171F" stroke-width="2" stroke-miterlimit="10" stroke-linecap="round" stroke-linejoin="round"/>
<path d="M15.3 18.24C13.757 20.074 11.407 23.043 14.86 27.398C14.86 27.398 8.10402 30.251 8.85402 35.431C8.85402 35.431 9.21602 37.907 11.256 37.833M20.5 35.03C19.344 42.284 22.886 41.085 23.517 40.691C24.665 39.974 25.365 30.837 27.469 29.381C29.061 28.277 35.636 29.079 35.636 29.079M35.44 26.33C35.531 28.072 36.193 29.732 37.174 31.175C37.836 32.148 38.977 33.495 38.627 34.16C34.148 42.66 39.249 41.182 39.71 40.327C42.898 34.41 45.835 36.223 44.357 29.807C44.357 29.807 49.627 27.997 49.877 21.83" stroke="#00171F" stroke-width="2" stroke-miterlimit="10" stroke-linecap="round" stroke-linejoin="round"/>
<path d="M45.1499 30.59C45.1499 30.59 47.5169 33.794 52.9079 33.283C52.9079 33.283 49.5819 40.045 52.9079 40.903C54.8249 41.397 57.6299 29.743 57.6299 29.743C57.6299 29.743 55.7909 28.949 53.6789 25.561" stroke="#00171F" stroke-width="2" stroke-miterlimit="10" stroke-linecap="round" stroke-linejoin="round"/>
</g>
<defs>
<clipPath id="clip0_514_778">
<rect width="66" height="42" fill="white"/>
</clipPath>
</defs>
</svg>
